<svg id="Layer_1" data-name="Layer 1" xmlns="http://www.w3.org/2000/svg" xmlns:xlink="http://www.w3.org/1999/xlink" viewBox="0 0 720 720"><defs><style>.cls-1{fill:none;}.cls-2{clip-path:url(#clip-path);}</style><clipPath id="clip-path"><rect class="cls-1" x="39.25" y="40.25" width="641.5" height="641.5"/></clipPath></defs><title>ico</title><g class="cls-2"><path d="M196.27,56.43a59.22,59.22,0,0,0-44.84-16A63.82,63.82,0,0,0,93.94,94.91a63.84,63.84,0,0,0-54.4,57.51,59.27,59.27,0,0,0,16,44.89,49,49,0,0,0,34.91,14.26c.81,0,1.64,0,2.46-.07H199.77a10.69,10.69,0,0,0,10.68-10.69V94.35a49.53,49.53,0,0,0-14.18-37.92Zm-7.2,133.62H92.37a27.75,27.75,0,0,1-21.75-7.94,37.91,37.91,0,0,1-9.76-28.75,43.83,43.83,0,0,1,43.2-38.14A10.68,10.68,0,0,0,114.25,105a43.82,43.82,0,0,1,38.16-43.19h2.26a37.24,37.24,0,0,1,26.49,9.81,28.44,28.44,0,0,1,7.91,22.2Zm0,0"/><path d="M222.21,223.18c-22.21,3.9-42.75,18.17-43.82,41.23a41.51,41.51,0,0,0,11.36,31.87,40.73,40.73,0,0,0,29.12,11.43H296A10.69,10.69,0,0,0,306.65,297V222.65a41.62,41.62,0,0,0-11.37-31.88,42.12,42.12,0,0,0-31.87-11.36c-23,1-37.29,21.57-41.2,43.77Zm20.31,10.15c.72-15.54,9.1-32,21.88-32.57h1.47a19.52,19.52,0,0,1,14.29,5.16,20.71,20.71,0,0,1,5.12,16.19v64.14H220.7a18.28,18.28,0,0,1-20.93-20.85c.59-12.82,17-21.16,32.56-21.88a10.68,10.68,0,0,0,10.19-10.18Zm0,0"/><path d="M502.2,203.87,202.9,503.17a10.68,10.68,0,0,0,4,17.64L666.58,681.16a10.69,10.69,0,0,0,13.6-13.62L519.84,207.91a10.68,10.68,0,0,0-17.64-4Zm-120.72,151a53.45,53.45,0,1,1-70.38,70.38Zm21.38,209.34a53.44,53.44,0,1,1,93.71,35l-21.43-7.48-72.22-25.18q-.06-1.21-.06-2.37Zm233,41.19a53.33,53.33,0,0,1-29.44-84.45ZM573.21,425.67a53.45,53.45,0,1,1-33.71-96.61Zm-41-117.36a74.83,74.83,0,1,0,48.2,138.14l18.06,51.76a74.64,74.64,0,0,0,45.31,129.85l8.93,25.66-134.92-47a74.74,74.74,0,1,0-136-47.46L230.07,506.31,295.36,441a74.18,74.18,0,0,0,64.74,37.64,74.94,74.94,0,0,0,74.83-74.83,74.18,74.18,0,0,0-37.72-64.76L505.27,231Zm0,0"/></g><path d="M189.07,329a10.68,10.68,0,0,0-10.68-10.69A107,107,0,0,0,71.49,425.21a10.69,10.69,0,1,0,21.38,0,85.61,85.61,0,0,1,85.52-85.51A10.69,10.69,0,0,0,189.07,329Zm0,0"/><path d="M167.7,296.94A10.69,10.69,0,0,0,157,286.25c-42.11,0-55.9-17.6-76.62-48.69A10.69,10.69,0,1,0,62.6,249.43c22.73,34.08,42.79,58.2,94.41,58.2a10.7,10.7,0,0,0,10.69-10.69Zm0,0"/><path d="M214.46,381.67a10.69,10.69,0,0,0-8-19.84,66.26,66.26,0,0,0-35.7,36.43,63.3,63.3,0,0,0,9.13,53.83,10.69,10.69,0,1,0,18.32-11A43.39,43.39,0,0,1,191,405.22a44.93,44.93,0,0,1,23.46-23.55Zm0,0"/><path d="M157,462.62a26.73,26.73,0,1,0-26.72,26.73A26.72,26.72,0,0,0,157,462.62Zm-32.07,0a5.35,5.35,0,1,1,5.35,5.35,5.34,5.34,0,0,1-5.35-5.35Zm0,0"/><path d="M66.15,350.39a26.73,26.73,0,1,0-26.72-26.73,26.73,26.73,0,0,0,26.72,26.73Zm0-32.07a5.35,5.35,0,1,1-5.34,5.34,5.34,5.34,0,0,1,5.34-5.34Zm0,0"/><g class="cls-2"><path d="M448.14,94.14c-54.51-13.22-104.91,21.52-119.81,82.69a10.69,10.69,0,1,0,20.77,5c10.26-42.14,45.79-78.63,94-67a10.69,10.69,0,1,0,5.05-20.78Zm0,0"/><path d="M266.42,40.69a10.7,10.7,0,0,0-5.05,20.79c29.2,7.11,44.53,43.68,34.9,83.29a10.69,10.69,0,0,0,7.86,12.91A10.7,10.7,0,0,0,317,149.81c12.47-51.24-9.76-99.17-50.62-109.12Zm0,0"/></g><path d="M379.57,228.22A38.24,38.24,0,0,1,404,213.45a44.82,44.82,0,0,1,34.12,16.27,10.68,10.68,0,0,0,15-15.21,64.74,64.74,0,0,0-51.05-22.34A59.79,59.79,0,0,0,362,216a10.69,10.69,0,0,0,17.56,12.21Zm0,0"/><g class="cls-2"><path d="M478.67,137.36a26.72,26.72,0,1,0,19.63,32.28,26.73,26.73,0,0,0-19.63-32.28Zm-1.14,27.23a5.36,5.36,0,1,1-.63-4,5.34,5.34,0,0,1,.63,4Zm0,0"/><path d="M361.09,41.15a26.74,26.74,0,1,0,19.63,32.3,26.74,26.74,0,0,0-19.63-32.3ZM360,68.38a5.34,5.34,0,1,1-.63-4,5.36,5.36,0,0,1,.63,4Zm0,0"/></g><path d="M316,316.94A17.72,17.72,0,0,0,311,329a17,17,0,0,0,34,0,17.9,17.9,0,0,0-4.93-12.07,16.94,16.94,0,0,0-2.73-2.05,9.55,9.55,0,0,0-2.89-1.53,10.55,10.55,0,0,0-3.24-1,17,17,0,0,0-15.28,4.6Zm0,0"/><path d="M514,120.17a16.29,16.29,0,1,0-5.61-3.57,19.4,19.4,0,0,0,5.61,3.57Zm0,0"/><path d="M91.49,573.44a19.89,19.89,0,0,0-3.57,5.61,16,16,0,0,0,0,12.92,19.89,19.89,0,0,0,3.57,5.61A16.85,16.85,0,0,0,110,601.15a20.17,20.17,0,0,0,5.62-3.57,20.11,20.11,0,0,0,3.57-5.61,16.13,16.13,0,0,0,0-12.92,19.89,19.89,0,0,0-3.57-5.61,17.81,17.81,0,0,0-24.15,0Zm0,0"/><path d="M87.51,503.08a13.34,13.34,0,0,0-3.07-1.53,10.29,10.29,0,0,0-3.24-1,16.39,16.39,0,0,0-18.85,10.2,17,17,0,1,0,31.28,0,19.75,19.75,0,0,0-3.57-5.61,29.2,29.2,0,0,0-2.55-2Zm0,0"/><path d="M591,109.47a19.92,19.92,0,0,0,5.61-3.58,19.84,19.84,0,0,0,3.57-5.6,16,16,0,0,0,0-12.92,19.53,19.53,0,0,0-3.57-5.61A17.63,17.63,0,0,0,591,78.19a16.79,16.79,0,0,0-12.91,0,17.45,17.45,0,0,0-5.62,3.57,19.75,19.75,0,0,0-3.57,5.61,14.28,14.28,0,0,0-1.36,6.46A16.83,16.83,0,0,0,591,109.47Zm0,0"/></svg>