<svg id="Layer_1" data-name="Layer 1" xmlns="http://www.w3.org/2000/svg" xmlns:xlink="http://www.w3.org/1999/xlink" viewBox="0 0 720 720"><defs><style>.cls-1{fill:none;}.cls-2{clip-path:url(#clip-path);}</style><clipPath id="clip-path"><rect class="cls-1" x="39.25" y="39.25" width="641.5" height="641.5"/></clipPath></defs><title>ico</title><g class="cls-2"><path d="M680.75,287.58H660.06V257.82a51.68,51.68,0,0,0-39.19-50.2l-43.59-10.89v-5a72.68,72.68,0,0,0,31.05-59.37v-18.1c0-40.2-31.5-73.83-70.21-75a71,71,0,0,0-52.66,20.41,71.85,71.85,0,0,0-22,52v20.7a72.65,72.65,0,0,0,31,59.36v5l-43.58,10.89a51.68,51.68,0,0,0-39.19,50.2v29.76H391.05v62.08h20.69V535.9h51.73v10.34a51.77,51.77,0,0,0,20.7,41.17v2.77l-34.91,10A51.78,51.78,0,0,0,422.09,619a51.75,51.75,0,0,0-27.18-18.83l-34.9-10v-2.77a51.79,51.79,0,0,0,20.69-41.17V527.7c0-27.82-20.7-51.38-47.13-53.68a51.7,51.7,0,0,0-56.33,51.53v20.69a51.79,51.79,0,0,0,20.69,41.17v2.77l-34.91,10A51.78,51.78,0,0,0,235.85,619a51.75,51.75,0,0,0-27.18-18.83l-34.9-10v-2.77a51.8,51.8,0,0,0,20.7-41.17V527.7c0-27.82-20.71-51.38-47.14-53.68A51.72,51.72,0,0,0,91,525.55v20.69a51.79,51.79,0,0,0,20.69,41.17v2.77l-34.91,10A52,52,0,0,0,39.27,649.9v30.85h579.4V649.9a52,52,0,0,0-37.52-49.76l-34.9-10v-2.77a51.79,51.79,0,0,0,20.69-41.17V535.9h93.12V349.66h20.69ZM432.44,257.82A31,31,0,0,1,456,227.7l59.26-14.81V180.13l-5.17-3a51.92,51.92,0,0,1-25.87-44.75v-20.7A51.74,51.74,0,0,1,537.5,60c27.64.83,50.13,25.18,50.13,54.3v18.1a51.88,51.88,0,0,1-25.9,44.75l-5.17,3,0,32.75,59.26,14.81a31,31,0,0,1,23.51,30.12v29.76H432.44ZM225.51,660.06H60V649.9a31.17,31.17,0,0,1,22.51-29.85l49.92-14.27V575.94l-5.15-3a30.72,30.72,0,0,1-15.55-26.71V525.55a31.06,31.06,0,0,1,33.86-30.91c15.83,1.37,28.22,15.89,28.22,33.06v18.54A30.7,30.7,0,0,1,158.22,573l-5.14,3v29.84L203,620.05a31.16,31.16,0,0,1,22.53,29.85Zm186.23,0H246.2V649.9a31.17,31.17,0,0,1,22.51-29.85l49.91-14.27V575.94l-5.14-3a30.7,30.7,0,0,1-15.55-26.71V525.55a31,31,0,0,1,33.85-30.91C347.61,496,360,510.53,360,527.7v18.54A30.68,30.68,0,0,1,344.45,573l-5.13,3v29.84l49.9,14.27a31.17,31.17,0,0,1,22.52,29.85ZM546.25,546.24A30.71,30.71,0,0,1,530.69,573l-5.14,3v29.84l49.9,14.27A31.16,31.16,0,0,1,598,649.9v10.16H432.44V649.9A31.17,31.17,0,0,1,455,620.05l49.91-14.27V575.94l-5.14-3a30.7,30.7,0,0,1-15.55-26.71V525.55A31,31,0,0,1,518,494.64c15.83,1.37,28.23,15.89,28.23,33.06Zm93.12-31h-74c-5.1-22.05-23.2-39.25-45.53-41.18a51.68,51.68,0,0,0-55.26,41.18H432.44V349.66H639.37ZM660.06,329H411.74V308.28H660.06Zm0,0"/></g><path d="M60,308.28H204.81v63.54a41.39,41.39,0,1,0,20.7,0V308.28H370.36V101.35h20.69V39.27H39.27v62.08H60ZM235.85,411.74a20.69,20.69,0,1,1-20.69-20.69,20.71,20.71,0,0,1,20.69,20.69ZM349.66,287.58h-269V101.35h269ZM60,60h310.4V80.65H60Zm0,0"/><path d="M329,122H266.89V266.89H329ZM308.28,246.2h-20.7V142.73h20.7Zm0,0"/><path d="M246.2,142.73H184.12V266.89H246.2ZM225.51,246.2h-20.7V163.42h20.7Zm0,0"/><path d="M163.43,184.12H101.35v82.77h62.08Zm-20.7,62.08H122V204.81h20.69Zm0,0"/></svg>