<svg id="Layer_1" data-name="Layer 1" xmlns="http://www.w3.org/2000/svg" xmlns:xlink="http://www.w3.org/1999/xlink" viewBox="0 0 720 720"><defs><style>.cls-1{fill:none;}.cls-2{clip-path:url(#clip-path);}</style><clipPath id="clip-path"><rect class="cls-1" x="39.25" y="39.25" width="641.5" height="641.5"/></clipPath></defs><title>ico</title><g class="cls-2"><path d="M83.81,108.16,41.05,172.31a10.68,10.68,0,0,0,8.89,16.62H168.62a53.46,53.46,0,0,0,104.78,0h34.21a53.46,53.46,0,0,0,104.78,0H446.6a53.46,53.46,0,0,0,104.78,0H670.05a10.69,10.69,0,0,0,8.9-16.62l-42.77-64.15a10.69,10.69,0,0,0-8.89-4.76h-10.7V60.63H509.68V39.25H488.3V60.63H231.7V39.25H210.32V60.63H103.4V103.4H92.71a10.72,10.72,0,0,0-8.9,4.76ZM221,210.32a32.13,32.13,0,0,1-30.24-21.39h60.49A32.15,32.15,0,0,1,221,210.32Zm139,0a32.13,32.13,0,0,1-30.24-21.39h60.49A32.15,32.15,0,0,1,360,210.32Zm139,0a32.14,32.14,0,0,1-30.24-21.39h60.49A32.15,32.15,0,0,1,499,210.32ZM124.78,82H595.21V103.4H124.78Zm496.79,42.76,28.5,42.77H69.93l28.5-42.77Zm0,0"/></g><path d="M605.9,424.15A32.07,32.07,0,0,0,638,392.08v-10.7h21.38V360H638V349.31a32.08,32.08,0,0,0-32.08-32.08H584.52V306.54a32.07,32.07,0,1,0-64.14,0v10.69H499a32.07,32.07,0,0,0-32.07,32.08V360H445.53v21.38h21.39v10.7A32.07,32.07,0,0,0,499,424.15l-16,21.38H386.73l-16-21.38a32.07,32.07,0,0,0,32.08-32.07v-10.7h21.38V360H402.77V349.31a32.08,32.08,0,0,0-32.08-32.08H349.31V306.54a32.08,32.08,0,0,0-64.15,0v10.69H263.77a32.07,32.07,0,0,0-32.07,32.08V360H210.32v21.38H231.7v10.7a32.07,32.07,0,0,0,32.07,32.07l-16,21.38H178a52.82,52.82,0,0,0,11-32.07V402.77H178a52.82,52.82,0,0,0,11-32.08V360H178a52.82,52.82,0,0,0,11-32.08V317.23H178a52.82,52.82,0,0,0,11-32.07V274.47H60.63v10.69a52.89,52.89,0,0,0,11,32.07h-11v10.69a52.9,52.9,0,0,0,11,32.08h-11v10.69a52.9,52.9,0,0,0,11,32.08h-11v10.69a52.89,52.89,0,0,0,11,32.07H39.25V680.75H103.4V595.22H616.59v85.53h64.15V445.53h-58.8ZM114.09,466.92H605.9v43.83a49.67,49.67,0,0,0-21.83,12,25.72,25.72,0,0,1-37.7,0,46.79,46.79,0,0,0-65.05,0,25.67,25.67,0,0,1-37.65,0,46.7,46.7,0,0,0-65,0,25.65,25.65,0,0,1-37.62,0,46.72,46.72,0,0,0-65,0,25.65,25.65,0,0,1-37.62,0,46.7,46.7,0,0,0-65,0,25.6,25.6,0,0,1-37.59,0,49.57,49.57,0,0,0-21.79-12ZM541.76,306.54a10.69,10.69,0,1,1,21.38,0v10.69H541.76ZM488.3,349.31A10.69,10.69,0,0,1,499,338.62H605.9a10.68,10.68,0,0,1,10.69,10.69V360H488.3Zm0,42.77v-10.7H616.59v10.7a10.69,10.69,0,0,1-10.69,10.69H499a10.7,10.7,0,0,1-10.69-10.69Zm37.42,32.07h53.45l16,21.38H509.68ZM306.54,306.54a10.69,10.69,0,0,1,21.38,0v10.69H306.54Zm-53.46,42.77a10.69,10.69,0,0,1,10.69-10.69H370.69a10.68,10.68,0,0,1,10.69,10.69V360H253.08Zm0,42.77v-10.7h128.3v10.7a10.69,10.69,0,0,1-10.69,10.69H263.77a10.7,10.7,0,0,1-10.69-10.69Zm37.42,32.07H344l16,21.38H274.47ZM114.09,445.53a32.11,32.11,0,0,1-30.24-21.38h81.87a32.12,32.12,0,0,1-30.25,21.38ZM83.85,295.85h81.87a32.12,32.12,0,0,1-30.25,21.38H114.09a32.11,32.11,0,0,1-30.24-21.38Zm0,42.77h81.87A32.14,32.14,0,0,1,135.47,360H114.09a32.14,32.14,0,0,1-30.24-21.38Zm0,42.76h81.87a32.14,32.14,0,0,1-30.25,21.39H114.09a32.14,32.14,0,0,1-30.24-21.39ZM82,659.37H60.63V595.22H82Zm577.34,0H638V595.22h21.38Zm0-85.54H60.63V466.92H92.71v53.46a10.7,10.7,0,0,0,10.69,10.69,25.49,25.49,0,0,1,18.79,8.21,46.65,46.65,0,0,0,65,0,25.65,25.65,0,0,1,37.6,0,46.72,46.72,0,0,0,65,0,25.66,25.66,0,0,1,37.61,0,46.7,46.7,0,0,0,65,0,25.66,25.66,0,0,1,37.61,0,46.72,46.72,0,0,0,65,0,25.67,25.67,0,0,1,37.69,0,46.8,46.8,0,0,0,65.06,0,25.56,25.56,0,0,1,18.84-8.21,10.7,10.7,0,0,0,10.7-10.69V466.92h32.07Zm0,0"/></svg>