<svg id="Layer_1" data-name="Layer 1" xmlns="http://www.w3.org/2000/svg" xmlns:xlink="http://www.w3.org/1999/xlink" viewBox="0 0 720 720"><defs><style>.cls-1{fill:none;}.cls-2{clip-path:url(#clip-path);}.cls-3{clip-path:url(#clip-path-2);}</style><clipPath id="clip-path"><rect class="cls-1" x="68.43" y="159.92" width="179.02" height="282.66"/></clipPath><clipPath id="clip-path-2"><rect class="cls-1" x="472.55" y="159.92" width="179.02" height="282.66"/></clipPath></defs><title>ico</title><g class="cls-2"><path d="M242.74,159.92H73.15a4.71,4.71,0,0,0-4.72,4.71V437.87a4.71,4.71,0,0,0,4.72,4.71H242.74a4.71,4.71,0,0,0,4.71-4.71V164.63a4.71,4.71,0,0,0-4.71-4.71ZM238,433.16H77.86V169.34H238Zm0,0"/></g><path d="M157.94,287.12a66,66,0,1,0,66,65.95,66,66,0,0,0-66-65.95Zm0,122.48a56.53,56.53,0,1,1,56.54-56.53,56.52,56.52,0,0,1-56.54,56.53Zm0,0"/><path d="M157.94,310.67a42.4,42.4,0,1,0,42.4,42.4,42.4,42.4,0,0,0-42.4-42.4Zm0,75.38a33,33,0,1,1,33-33,33,33,0,0,1-33,33Zm0,0"/><path d="M157.94,211.74a33,33,0,1,0,33,33,33,33,0,0,0-33-33Zm0,56.53a23.56,23.56,0,1,1,23.56-23.55,23.56,23.56,0,0,1-23.56,23.55Zm0,0"/><path d="M106.12,188.19a9.42,9.42,0,1,1-9.42-9.43,9.42,9.42,0,0,1,9.42,9.43Zm0,0"/><path d="M228.61,188.19a9.42,9.42,0,1,1-9.42-9.43,9.42,9.42,0,0,1,9.42,9.43Zm0,0"/><path d="M106.12,414.32a9.42,9.42,0,1,1-9.42-9.43,9.42,9.42,0,0,1,9.42,9.43Zm0,0"/><path d="M228.61,414.32a9.42,9.42,0,1,1-9.42-9.43,9.42,9.42,0,0,1,9.42,9.43Zm0,0"/><g class="cls-3"><path d="M646.85,159.92H477.26a4.71,4.71,0,0,0-4.71,4.71V437.87a4.71,4.71,0,0,0,4.71,4.71H646.85a4.71,4.71,0,0,0,4.72-4.71V164.63a4.71,4.71,0,0,0-4.72-4.71Zm-4.71,273.24H482V169.34H642.14Zm0,0"/></g><path d="M562.06,287.12a66,66,0,1,0,66,65.95,66,66,0,0,0-66-65.95Zm0,122.48a56.53,56.53,0,1,1,56.53-56.53,56.53,56.53,0,0,1-56.53,56.53Zm0,0"/><path d="M562.06,310.67a42.4,42.4,0,1,0,42.4,42.4,42.4,42.4,0,0,0-42.4-42.4Zm0,75.38a33,33,0,1,1,33-33,33,33,0,0,1-33,33Zm0,0"/><path d="M562.06,211.74a33,33,0,1,0,33,33,33,33,0,0,0-33-33Zm0,56.53a23.56,23.56,0,1,1,23.55-23.55,23.56,23.56,0,0,1-23.55,23.55Zm0,0"/><path d="M510.23,188.19a9.42,9.42,0,1,1-9.42-9.43,9.42,9.42,0,0,1,9.42,9.43Zm0,0"/><path d="M632.72,188.19a9.42,9.42,0,1,1-9.42-9.43,9.42,9.42,0,0,1,9.42,9.43Zm0,0"/><path d="M510.23,414.32a9.42,9.42,0,1,1-9.42-9.43,9.42,9.42,0,0,1,9.42,9.43Zm0,0"/><path d="M632.72,414.32a9.42,9.42,0,1,1-9.42-9.43,9.42,9.42,0,0,1,9.42,9.43Zm0,0"/><path d="M481.62,432.87l-2.7-10.79H488a5.31,5.31,0,0,0,5.31-5.31V384.93a5.31,5.31,0,0,0-5.31-5.31H468.31l-3.95-15.77a21.19,21.19,0,0,0-20.59-16.08H381.89V326.54h69a15.94,15.94,0,0,0,15.92-15.92v-63.7A15.94,15.94,0,0,0,450.89,231H270.43a15.94,15.94,0,0,0-15.93,15.92v63.7a15.94,15.94,0,0,0,15.93,15.92h69v21.23H277.55A21.19,21.19,0,0,0,257,363.85L253,379.62H233.27a5.31,5.31,0,0,0-5.31,5.31v31.84a5.31,5.31,0,0,0,5.31,5.31h9.12l-2.69,10.79a47.84,47.84,0,0,0-43.58,47.59V501.7a15.89,15.89,0,0,0,10.61,14.94v27.52a15.94,15.94,0,0,0,15.93,15.92h21.23a15.94,15.94,0,0,0,15.92-15.92v-5.31h201.7v5.31a15.94,15.94,0,0,0,15.92,15.92h21.23a15.94,15.94,0,0,0,15.92-15.92V516.64A15.9,15.9,0,0,0,525.2,501.7V480.46a47.84,47.84,0,0,0-43.58-47.59Zm1.12-42.64v21.23h-6.47L471,390.23ZM265.12,310.62v-63.7a5.31,5.31,0,0,1,5.31-5.3H450.89a5.32,5.32,0,0,1,5.31,5.3v63.7a5.32,5.32,0,0,1-5.31,5.3H270.43a5.31,5.31,0,0,1-5.31-5.3ZM350,326.54h21.23v21.23H350ZM238.58,411.46V390.23h11.78l-5.31,21.23Zm10.62,132.7a5.33,5.33,0,0,1-5.31,5.31H222.66a5.32,5.32,0,0,1-5.31-5.31V517.62H249.2Zm10.61-26.54h53.08v10.61H259.81ZM408.43,507H397.81V450.51a47.5,47.5,0,0,1,10.62,29.95Zm-74.31-66.23a47.81,47.81,0,0,1,10.61-5.29V507H334.12ZM387.2,507H376.58V435.48a47.67,47.67,0,0,1,10.62,5.29ZM366,507H355.35V433A45.63,45.63,0,0,1,366,433Zm31.84,10.62v10.61H323.5V517.62Zm-3.69-84.92a58,58,0,0,0-66.93,0H271.92l13.27-53.08H436.13L449.4,432.7ZM323.5,507H312.89V480.46a47.55,47.55,0,0,1,10.61-29.95Zm84.93,21.23V517.62h53.08v10.61ZM504,544.16a5.33,5.33,0,0,1-5.31,5.31H477.43a5.33,5.33,0,0,1-5.31-5.31V517.62H504Zm10.61-42.46a5.31,5.31,0,0,1-5.3,5.3H419V480.46a58.08,58.08,0,0,0-13.38-37.15H456.2a5.29,5.29,0,0,0,4.18-2,5.36,5.36,0,0,0,1-4.56L445.42,373a5.31,5.31,0,0,0-5.15-4H281a5.32,5.32,0,0,0-5.15,4L260,436.71a5.31,5.31,0,0,0,5.15,6.6h50.53a58.13,58.13,0,0,0-13.38,37.15V507H212a5.32,5.32,0,0,1-5.31-5.3V480.46a37.2,37.2,0,0,1,37.16-37.15,5.3,5.3,0,0,0,5.15-4l18.21-72.86a10.6,10.6,0,0,1,10.3-8H443.76a10.6,10.6,0,0,1,10.3,8l18.22,72.86a5.3,5.3,0,0,0,5.15,4,37.19,37.19,0,0,1,37.15,37.15Zm0,0"/><path d="M228,469.85v21.23a5.31,5.31,0,0,0,5.31,5.31h31.85a5.31,5.31,0,0,0,5.31-5.31V469.85a5.31,5.31,0,0,0-5.31-5.31H233.27a5.31,5.31,0,0,0-5.31,5.31Zm10.62,5.31h21.23v10.61H238.58Zm0,0"/><path d="M488,464.54H456.2a5.31,5.31,0,0,0-5.31,5.31v21.23a5.31,5.31,0,0,0,5.31,5.31H488a5.31,5.31,0,0,0,5.31-5.31V469.85a5.31,5.31,0,0,0-5.31-5.31Zm-5.3,21.23H461.51V475.16h21.23Zm0,0"/><path d="M293.21,418.33l31.85-31.85,7.5,7.51-31.85,31.84Zm0,0"/><path d="M388.75,418.33l31.84-31.85L428.1,394l-31.85,31.84Zm0,0"/><path d="M312.89,268.15A15.94,15.94,0,0,0,297,252.23H281a5.31,5.31,0,0,0-5.31,5.31v47.77h10.62V284.83a21.21,21.21,0,0,1,15.92,20.48h10.62a31.76,31.76,0,0,0-9.47-22.63,15.92,15.92,0,0,0,9.47-14.53Zm-26.54-5.3H297a5.31,5.31,0,0,1,0,10.61H286.35Zm0,0"/><path d="M323.5,257.54V300a5.31,5.31,0,0,0,5.31,5.31h26.54V294.69H334.12V284.08h21.23V273.46H334.12V262.85h21.23V252.23H328.81a5.31,5.31,0,0,0-5.31,5.31Zm0,0"/><path d="M392.5,281.49l-16.72-26.76a5.3,5.3,0,0,0-9.81,2.81v47.77h10.61V276.05l16.73,26.76a5.31,5.31,0,0,0,9.81-2.81V252.23H392.5Zm0,0"/><path d="M413.74,262.85h10.61v42.46H435V262.85h10.61V252.23H413.74Zm0,0"/></svg>