<svg id="Layer_1" data-name="Layer 1" xmlns="http://www.w3.org/2000/svg" viewBox="0 0 720 720"><title>ico</title><path d="M616.6,477.61a53.45,53.45,0,0,0-52,41.62,63.53,63.53,0,0,0-67,0,53.34,53.34,0,0,0-104.07,0,63.55,63.55,0,0,0-67,0,53.34,53.34,0,0,0-104.07,0,63.53,63.53,0,0,0-67,0,53.46,53.46,0,0,0-105.5,11.84,10.69,10.69,0,0,0,21.38,0,32.08,32.08,0,1,1,64.15,0,10.43,10.43,0,0,0,1.56,5.22,63.8,63.8,0,0,0,5.88,82.13,26.79,26.79,0,0,0-10.49,7,29.84,29.84,0,0,0-7.64,20.1v24.52a10.7,10.7,0,0,0,21.39,0V645.54a8.6,8.6,0,0,1,2.07-5.71,5.24,5.24,0,0,1,3.83-1.85h73.77a5.26,5.26,0,0,1,3.83,1.85,8.5,8.5,0,0,1,2.07,5.71v24.52a10.69,10.69,0,0,0,21.38,0V645.54a29.78,29.78,0,0,0-7.63-20.1,26.83,26.83,0,0,0-10.48-7,63.82,63.82,0,0,0,5.87-82.13,10.37,10.37,0,0,0,1.51-5.22,32.08,32.08,0,1,1,64.15,0,10.42,10.42,0,0,0,1.55,5.22A63.81,63.81,0,0,0,314,618.42a26.72,26.72,0,0,0-10.49,7,29.84,29.84,0,0,0-7.64,20.1v24.52a10.69,10.69,0,1,0,21.38,0V645.54a8.56,8.56,0,0,1,2.08-5.71,5.22,5.22,0,0,1,3.83-1.85h73.77a5.22,5.22,0,0,1,3.82,1.85,8.51,8.51,0,0,1,2.08,5.71v24.52a10.69,10.69,0,0,0,21.38,0V645.54a29.83,29.83,0,0,0-7.63-20.1,26.79,26.79,0,0,0-10.49-7A63.81,63.81,0,0,0,412,536.29a10.37,10.37,0,0,0,1.51-5.22,32.08,32.08,0,1,1,64.15,0,10.42,10.42,0,0,0,1.55,5.22A63.81,63.81,0,0,0,485,618.42a26.79,26.79,0,0,0-10.49,7,29.88,29.88,0,0,0-7.63,20.1v24.52a10.69,10.69,0,0,0,21.38,0V645.54a8.6,8.6,0,0,1,2.07-5.71A5.26,5.26,0,0,1,494.2,638H568a5.22,5.22,0,0,1,3.83,1.85,8.5,8.5,0,0,1,2.07,5.71v24.52a10.7,10.7,0,0,0,21.39,0V645.54a29.84,29.84,0,0,0-7.64-20.1,26.83,26.83,0,0,0-10.48-7A63.81,63.81,0,0,0,583,536.29a10.28,10.28,0,0,0,1.51-5.22,32.08,32.08,0,1,1,64.15,0,10.7,10.7,0,0,0,21.39,0,53.52,53.52,0,0,0-53.46-53.46Zm-427.67,139a42.77,42.77,0,1,1,42.77-42.77,42.77,42.77,0,0,1-42.77,42.77Zm171.07,0a42.77,42.77,0,1,1,42.77-42.77A42.77,42.77,0,0,1,360,616.6Zm171.07,0a42.77,42.77,0,1,1,42.76-42.77,42.77,42.77,0,0,1-42.76,42.77Zm0,0"/><path d="M188.93,402.77a53.46,53.46,0,0,0-53.46,53.45,10.7,10.7,0,1,0,21.39,0,32.08,32.08,0,0,1,64.15,0,10.69,10.69,0,1,0,21.38,0,53.46,53.46,0,0,0-53.46-53.45Zm0,0"/><path d="M360,402.77a53.46,53.46,0,0,0-53.46,53.45,10.7,10.7,0,1,0,21.39,0,32.07,32.07,0,1,1,64.14,0,10.7,10.7,0,1,0,21.39,0A53.46,53.46,0,0,0,360,402.77Zm0,0"/><path d="M531.07,402.77a53.46,53.46,0,0,0-53.46,53.45,10.69,10.69,0,1,0,21.38,0,32.08,32.08,0,0,1,64.15,0,10.69,10.69,0,1,0,21.38,0,53.46,53.46,0,0,0-53.45-53.45Zm0,0"/><path d="M670.06,92.71h-7a10.41,10.41,0,0,0-1.48-2.21L631.72,60.63h38.34a10.69,10.69,0,1,0,0-21.38H49.94a10.69,10.69,0,1,0,0,21.38h17L99,92.71h-49a10.69,10.69,0,1,0,0,21.38H60.63v37.42a42.48,42.48,0,0,0,1.08,59.15l20.84,20.85a10.7,10.7,0,0,0,15.12,0L143,186.14A10.68,10.68,0,0,0,143,171l-20.85-20.83A41.87,41.87,0,0,0,82,139V114.09H349.31v25.85a41.14,41.14,0,0,0-19.55,10.69,43,43,0,0,0-12.53,30.2v29.49A10.7,10.7,0,0,0,327.93,221h64.14a10.7,10.7,0,0,0,10.7-10.69V180.83a43,43,0,0,0-12.53-30.24,41.23,41.23,0,0,0-19.55-10.69V114.09H638V139a41.88,41.88,0,0,0-40.17,11.25L577,171.06a10.68,10.68,0,0,0,0,15.12l45.35,45.36a10.68,10.68,0,0,0,15.12,0l20.85-20.85a42.51,42.51,0,0,0,1.08-59.18V114.09h10.69a10.69,10.69,0,1,0,0-21.38ZM92,159.07a21.27,21.27,0,0,1,15.12,6.27l13.29,13.28L90.12,208.86,76.83,195.57A21.39,21.39,0,0,1,92,159.07Zm5.18-98.44h55.3L124.78,88.28Zm53.46,32.08,27.65-27.65,27.65,27.65Zm53.46-32.08h55.3L231.7,88.28Zm53.46,32.08,27.65-27.65,27.65,27.65Zm81.11-4.43L311,60.63h55.3Zm36.5,77.43a21.57,21.57,0,0,1,6.26,15.12v18.79H338.62V180.83a21.38,21.38,0,0,1,36.5-15.12Zm-10.69-73,27.64-27.65,27.65,27.65Zm53.45-32.08h55.3L445.53,88.28Zm53.46,32.08L499,65.06l27.65,27.65ZM524.8,60.63h55.3L552.45,88.28Zm53.46,32.08,27.65-27.65,27.65,27.65Zm71.17,87.74a21.22,21.22,0,0,1-6.26,15.12l-13.29,13.29-30.24-30.24,13.29-13.28a21.38,21.38,0,0,1,36.5,15.11Zm0,0"/><path d="M670.06,360H49.94a10.69,10.69,0,0,0,0,21.38H670.06a10.69,10.69,0,1,0,0-21.38Zm0,0"/></svg>