<svg id="Layer_1" data-name="Layer 1" xmlns="http://www.w3.org/2000/svg" xmlns:xlink="http://www.w3.org/1999/xlink" viewBox="0 0 720 720"><defs><style>.cls-1{fill:none;}.cls-2{clip-path:url(#clip-path);}</style><clipPath id="clip-path"><rect class="cls-1" x="39.25" y="39.25" width="641.5" height="641.5"/></clipPath></defs><title>ico</title><g class="cls-2"><path d="M670.06,253.08H656.87A297.92,297.92,0,0,0,552.45,104.15l-.93-.75A316.74,316.74,0,0,0,360,39.25c-137.28,0-258,87.57-296.87,213.83H49.94a10.7,10.7,0,0,0-10.69,10.69v42.77a10.69,10.69,0,0,0,10.69,10.69H71.32V616.6H49.94a10.7,10.7,0,0,0-10.69,10.69v42.77a10.7,10.7,0,0,0,10.69,10.69h128.3a10.69,10.69,0,0,0,10.69-10.69V627.29a10.69,10.69,0,0,0-10.69-10.69H156.86V317.23h21.38a10.68,10.68,0,0,0,10.69-10.69V263.77a10.69,10.69,0,0,0-10.69-10.69h-5.06a207.88,207.88,0,0,1,47.19-64.15H221v-.55a202,202,0,0,1,71.71-42,50,50,0,0,0,6.57,7.38l53.46,53.45a10.68,10.68,0,0,0,15.12,0L421,154.07a52.77,52.77,0,0,0,6.75-7.49,203.31,203.31,0,0,1,119.13,106.5h-5.07a10.69,10.69,0,0,0-10.69,10.69v42.77a10.68,10.68,0,0,0,10.69,10.69h21.38V616.6H541.76a10.69,10.69,0,0,0-10.69,10.69v42.77a10.69,10.69,0,0,0,10.69,10.69h128.3a10.7,10.7,0,0,0,10.69-10.69V627.29a10.7,10.7,0,0,0-10.69-10.69H648.67V317.23h21.39a10.69,10.69,0,0,0,10.69-10.69V263.77a10.7,10.7,0,0,0-10.69-10.69ZM135.47,573.83H92.71V488.3h42.76Zm32.08,85.54H60.63V638H167.55ZM92.71,616.6V595.22h42.76V616.6Zm42.76-149.68H92.71V317.23h42.76Zm32.08-171.07H60.63V274.47H167.55ZM406.21,138.61l-45.9,45.9L314,138.27a19.94,19.94,0,0,1-7.49-13.49A19.94,19.94,0,0,1,314,111.3a29.94,29.94,0,0,1,39,0,10.69,10.69,0,0,0,14.42,0,29.94,29.94,0,0,1,39,0A20,20,0,0,1,414,124.78a20.51,20.51,0,0,1-7.81,13.83ZM559.94,231.7l-13.26-21.38a225.22,225.22,0,0,0-39-42.77l-29.92-21.38a222.83,222.83,0,0,0-42.53-19.66c0-.58.21-1.15.21-1.73A39.78,39.78,0,0,0,421,95.5a51.61,51.61,0,0,0-60.67-5.34,51.61,51.61,0,0,0-60.67,5.34,39.81,39.81,0,0,0-14.45,29.28c0,.5.15,1,.17,1.48a223.6,223.6,0,0,0-73,41.29l-22.08,21.38a232,232,0,0,0-40.63,64.15H85.34A271.12,271.12,0,0,1,98.65,221l11.55-21.38a279.4,279.4,0,0,1,53.07-64.15l26.59-21.39A297.4,297.4,0,0,1,513.62,103.4l30.57,21.38a283.35,283.35,0,0,1,43.09,42.77l15.82,21.38a271,271,0,0,1,31.56,64.15H570.34q-4.67-11-10.4-21.38Zm67.35,342.13H584.52V488.3h42.77Zm32.08,85.54H552.45V638H659.37ZM584.52,616.6V595.22h42.77V616.6Zm42.77-149.68H584.52V317.23h42.77Zm32.08-171.07H552.45V274.47H659.37Zm0,0"/><path d="M199.63,456.23V499a10.68,10.68,0,0,0,10.69,10.69h81.1l36.5,36.5v74.91l-69.49,39.69a10.69,10.69,0,0,0,5.34,20H456.23a10.69,10.69,0,0,0,5.34-20l-69.49-39.69V546.18l36.5-36.5h81.1A10.69,10.69,0,0,0,520.38,499V456.23a10.7,10.7,0,0,0-10.7-10.7H466.92V413.46a10.69,10.69,0,0,0-10.69-10.69h-10.7V370.69A10.69,10.69,0,0,0,434.84,360H424.15V327.92a10.7,10.7,0,0,0-10.69-10.69H392.08V263.77H370.69v53.46H349.31V285.16H327.92v32.07H306.54a10.7,10.7,0,0,0-10.69,10.69V360H285.16a10.69,10.69,0,0,0-10.69,10.69v32.08h-10.7a10.69,10.69,0,0,0-10.69,10.69v32.07H210.32a10.69,10.69,0,0,0-10.69,10.7ZM360,548l-81.11-81.1H441.11ZM304,659.37,341.46,638h37.08L416,659.37Zm66.65-42.77H349.31v-49l3.13,3.13a10.7,10.7,0,0,0,15.12,0l3.13-3.13ZM499,488.3H450l21.38-21.38H499ZM317.23,338.62h85.54V360H317.23Zm-21.38,42.76h128.3v21.39H295.85Zm-21.38,42.77H445.53v21.38H274.47ZM221,466.92h27.65L270,488.3H221Zm0,0"/></g></svg>