<svg id="_96306a94-3bea-4326-87c9-b4488db4c6c8" data-name="96306a94-3bea-4326-87c9-b4488db4c6c8" xmlns="http://www.w3.org/2000/svg" viewBox="0 0 1097.1 807.9">
  <defs>
    <style>
      .cls-1, .cls-4 {
        fill: #c11717;
      }

      .cls-1, .cls-2 {
        opacity: 0.1;
      }

      .cls-1, .cls-5 {
        isolation: isolate;
      }

      .cls-3 {
        fill: none;
        stroke: #535461;
        stroke-miterlimit: 10;
        stroke-width: 2px;
      }

      .cls-5 {
        opacity: 0.25;
      }

      .cls-6 {
        fill: #535461;
      }

      .cls-7 {
        fill: #eaeaf3;
      }

      .cls-8 {
        fill: #fff;
      }
    </style>
  </defs>
  <title>apps2</title>
  <path class="cls-1" d="M11.85,430C29.21,504.15,66,568.29,124,599.38c120.7,64.61,392.91,31.29,596.07-7A465.21,465.21,0,0,0,984.65,441.15Z"/>
  <path class="cls-1" d="M1077.2,80.71H965.73a9.63,9.63,0,1,1,0-19.27H985a9.64,9.64,0,1,1,0-19.27H971.24a9.64,9.64,0,1,1,0-19.27h58.18c-12.91-6-28-10.27-45.38-12.51C825.4-10,768.76,3.49,748.78,17.39c-24.65,17.1-52.15,29.68-81.54,35.74C569.36,73.32,386.31,97.62,220.4,45.35c-82.46-26-143.75,17.92-180.48,91.28H1096.55c-1.38-21.32-5.51-41-13.09-58.24A9.58,9.58,0,0,1,1077.2,80.71Z"/>
  <path class="cls-1" d="M2.39,275.1A491.06,491.06,0,0,0,6.71,404.55l978.68,35.79a460,460,0,0,0,68-103.7Zm387.08,92.35H370.2a9.63,9.63,0,0,1,0,19.27H258.73a9.63,9.63,0,1,1,0-19.27H278a9.63,9.63,0,1,1,0-19.27H264.24a9.63,9.63,0,1,1,0-19.27H375.71a9.63,9.63,0,0,1,0,19.27h13.76a9.63,9.63,0,0,1,0,19.27Z"/>
  <path class="cls-1" d="M1096.6,137.29l-1068.49,26c-13,33.4-21.56,71.17-25.56,110.33H1077.88a456.46,456.46,0,0,0,15.53-70.33C1096.61,180.27,1097.89,158,1096.6,137.29ZM219.47,222.45H200.2a9.63,9.63,0,0,1,0,19.27H88.73a9.63,9.63,0,1,1,0-19.27H108a9.64,9.64,0,0,1,0-19.27H94.24a9.64,9.64,0,0,1,0-19.27H205.71a9.64,9.64,0,1,1,0,19.27h13.76a9.64,9.64,0,1,1,0,19.27Z"/>
  <g class="cls-2">
    <path class="cls-3" d="M677.55,623.28s28.2-69.5,80.86-95.28A113.65,113.65,0,0,0,810,478,191.13,191.13,0,0,0,823,445.45"/>
    <path class="cls-4" d="M856,429c-5.49,6.9-33.9,17-33.9,17s3.42-30,8.91-36.85A16,16,0,0,1,856,429Z"/>
    <path class="cls-4" d="M846.29,483.66c-8.36,2.81-37.68-4.18-37.68-4.18s19.15-23.28,27.51-26.09a16,16,0,0,1,10.17,30.27Z"/>
    <path class="cls-4" d="M793.43,548.26C784.8,546.47,763,525.63,763,525.63s28.28-10.43,36.92-8.64a16,16,0,0,1-6.5,31.26Z"/>
    <path class="cls-4" d="M742.43,588.14c-8.81-.31-33.81-17.16-33.81-17.16s26.12-15,34.93-14.75a16,16,0,1,1-1.12,31.91Z"/>
    <path class="cls-4" d="M781.31,460c1.13,8.75,20.22,32.07,20.22,32.07s12.57-27.4,11.45-36.15A16,16,0,0,0,781.31,460Z"/>
    <path class="cls-4" d="M722.25,507.34c3.69,8,28.89,24.55,28.89,24.55s3.8-29.91.11-37.91a16,16,0,1,0-29,13.37Z"/>
    <path class="cls-4" d="M671.17,561.28c2.28,8.52,24.33,29.08,24.33,29.08S704.3,561.53,702,553a16,16,0,0,0-30.84,8.27Z"/>
    <path class="cls-5" d="M856,429c-5.49,6.9-33.9,17-33.9,17s3.42-30,8.91-36.85A16,16,0,0,1,856,429Z"/>
    <path class="cls-5" d="M846.29,483.66c-8.36,2.81-37.68-4.18-37.68-4.18s19.15-23.28,27.51-26.09a16,16,0,0,1,10.17,30.27Z"/>
    <path class="cls-5" d="M793.43,548.26C784.8,546.47,763,525.63,763,525.63s28.28-10.43,36.92-8.64a16,16,0,0,1-6.5,31.26Z"/>
    <path class="cls-5" d="M742.43,588.14c-8.81-.31-33.81-17.16-33.81-17.16s26.12-15,34.93-14.75a16,16,0,1,1-1.12,31.91Z"/>
    <path class="cls-5" d="M781.31,460c1.13,8.75,20.22,32.07,20.22,32.07s12.57-27.4,11.45-36.15A16,16,0,0,0,781.31,460Z"/>
    <path class="cls-5" d="M722.25,507.34c3.69,8,28.89,24.55,28.89,24.55s3.8-29.91.11-37.91a16,16,0,1,0-29,13.37Z"/>
    <path class="cls-5" d="M671.17,561.28c2.28,8.52,24.33,29.08,24.33,29.08S704.3,561.53,702,553a16,16,0,0,0-30.84,8.27Z"/>
  </g>
  <g class="cls-2">
    <path class="cls-3" d="M657.55,521.66s3.56-74.92,44.69-116.71a113.65,113.65,0,0,0,32-64.35,191.13,191.13,0,0,0,1.43-34.92"/>
    <path class="cls-4" d="M761.55,279.19c-2.89,8.33-26.35,27.26-26.35,27.26s-6.7-29.39-3.81-37.72a16,16,0,1,1,30.16,10.46Z"/>
    <path class="cls-4" d="M770.43,334c-7,5.42-36.94,8.56-36.94,8.56s10.35-28.32,17.3-33.74A16,16,0,1,1,770.43,334Z"/>
    <path class="cls-4" d="M742,412.47c-8.74,1.17-36.2-11.26-36.2-11.26s23.23-19.22,32-20.39A16,16,0,1,1,742,412.47Z"/>
    <path class="cls-4" d="M707.09,467c-8.42,2.63-37.59-5-37.59-5s19.64-22.87,28.06-25.5A16,16,0,0,1,707.09,467Z"/>
    <path class="cls-4" d="M701.26,333.17c4,7.88,29.72,23.55,29.72,23.55s2.77-30-1.19-37.9a16,16,0,0,0-28.53,14.35Z"/>
    <path class="cls-4" d="M661.26,397.47c6.14,6.33,35.4,13.58,35.4,13.58s-6.33-29.47-12.47-35.8a16,16,0,0,0-22.93,22.23Z"/>
    <path class="cls-4" d="M631,465.29c5,7.28,32.6,19.37,32.6,19.37s-1.26-30.12-6.24-37.4a16,16,0,0,0-26.35,18Z"/>
  </g>
  <path class="cls-1" d="M299.74,775.76c39.32,13.22,87.29,5.18,131.9,6.11,6.11.13,12.57.51,17.47,2.79s7.31,6,10.67,9.15c12.5,11.79,38.11,15.58,60.5,13.58s42.92-8.62,64-13.66c36.52-8.72,78.27-12.68,114.29-3.18,3.31.87,6.79,1.87,10.33,1.53,7.9-.78,10.25-7.1,15.77-10.71,10-6.52,31.63-4.75,36-13.34,2.57-5-3.34-10.2-9.77-13.64-24.62-13.16-59.84-15.33-92.06-13.3s-63.9,7.63-96.29,7.65c-40.35,0-79.34-8.59-119.3-12.11-27.68-2.44-57.89-2.14-83.84,5C331.36,749.45,325.16,766.89,299.74,775.76Z"/>
  <rect class="cls-6" x="365.51" y="184.9" width="7" height="99"/>
  <rect class="cls-6" x="365.51" y="317.9" width="7" height="56"/>
  <rect class="cls-6" x="370.51" y="87.9" width="315" height="684" rx="47.1" ry="47.1"/>
  <rect class="cls-4" x="370.51" y="119.9" width="315" height="623" rx="47.1" ry="47.1"/>
  <path class="cls-7" d="M506,102.9h45a3.5,3.5,0,0,1,3.5,3.5h0a3.5,3.5,0,0,1-3.5,3.5H506a3.5,3.5,0,0,1-3.5-3.5h0A3.5,3.5,0,0,1,506,102.9Z"/>
  <circle class="cls-7" cx="572.51" cy="106.9" r="5"/>
  <path class="cls-8" d="M613.71,452.1h2.11a.9.9,0,0,0,.8-.7l2.76-13.17c1.56-4.52,2.46-9.2,3.62-13.82a90.45,90.45,0,0,0,.7-45.73,123,123,0,0,0-7.29-19.45,112,112,0,0,0-6.13-10.55,49.55,49.55,0,0,0-6-8.59,61.91,61.91,0,0,0-7.19-7.64,74.31,74.31,0,0,0-6-5.33c-2.06-1.71-3.87-2.91-5.83-4.37s-6.53-4.07-7.64-4.72a114.37,114.37,0,0,0-13.57-6.18c-1-.4-13.77-3.92-13.77-3.92a85.43,85.43,0,0,0-12.11-1.56H523.16a38.34,38.34,0,0,0-5,.45,95.48,95.48,0,0,0-61.21,34,5,5,0,0,0,7.47,6.72q.17-.19.32-.39a85.79,85.79,0,0,1,54.87-30.7l3.82-.45s6.38-.5,8.54-.55a58.89,58.89,0,0,1,6.28.5h2.91l4.27.7h0l5,1,3.62,1.36,3.37,1,3.32,1.21,3.42,1.26,3.87,1.81,4.77,2.46,3.82,2.31,3.32,2.11h0l5,3.67h0a55.16,55.16,0,0,1,5,4.52,174.77,174.77,0,0,1,13,15.63A101.7,101.7,0,0,1,609.18,366a95.13,95.13,0,0,1,6.23,19.25h0c.35,2.66.65,5.38,1,8a82.46,82.46,0,0,1-3.12,30.15,93.32,93.32,0,0,1-4.12,14.62H554.91V412.25c0-1.56.35-2.06,2-2h42.86l-5.48-13.42c0-.35-.5-.3-.85-.25h-37c-.9,0-1.51,0-1.46-1.26V369.49h43.27c1.21,0,1.31-.5.9-1.46q-2.26-5.58-4.87-11.41a1.51,1.51,0,0,0-1.61-1.11c-1.71,0-50.9,0-51.66.25h0c0,.85-.25,81.36-.3,82.31h-60A4.27,4.27,0,0,1,481.8,436c14.67-21.16,29.3-42.31,44.12-63.37a8.34,8.34,0,0,0,.3-6c-1.16-2.86-2.36-5.73-3.42-8.59-.6-1.61-3.12-1.51-3.12-1.51s-71.66-.35-72.91,0h0a41.66,41.66,0,0,0-4.27,9.2,92.51,92.51,0,0,0-7.94,54.12,93.87,93.87,0,0,0,28.24,54.77,79.2,79.2,0,0,0,17,13h0a50.25,50.25,0,0,0,5,3h0a28.54,28.54,0,0,0,4.72,2.31,21,21,0,0,0,4.37,1.86,46.33,46.33,0,0,0,6.73,2.36,29.4,29.4,0,0,0,5,1.51c1.46.3,11.81,2.11,13.42,2.31a25.63,25.63,0,0,0,3.82.4h5a77.81,77.81,0,0,0,11.26-.45,14.72,14.72,0,0,0,4.32-.55l5-1,3.82-1a13.32,13.32,0,0,0,4.32-1.26h0a11.91,11.91,0,0,0,4.32-1.46h0a13.52,13.52,0,0,0,4.27-1.61,11.86,11.86,0,0,0,3.87-1.76,9.25,9.25,0,0,0,3.32-1.56,16.78,16.78,0,0,0,3.87-2.16h0a16.83,16.83,0,0,0,4.27-2.66,8.59,8.59,0,0,0,2.81-1.71,90.45,90.45,0,0,0,19.45-18.19,4.95,4.95,0,0,0-7.44-6.53,112.76,112.76,0,0,1-15.33,15.08,31.21,31.21,0,0,0-5,3.42h0a16.33,16.33,0,0,0-3.92,2.36h0a7.49,7.49,0,0,0-2.71,1.46,16.08,16.08,0,0,0-3.82,1.91l-4.32,1.91a14.57,14.57,0,0,0-3.82,1.41h0a17.49,17.49,0,0,0-4.32,1.36h0l-3.82,1a17.84,17.84,0,0,0-5,1l-4.32.65a2.86,2.86,0,0,0-1.46,0H523.26l-4.77-.45-3.37-.5-4.77-1L506,488.18h0l-5-1.61-5.33-2.11c-1.56-.7-3.17-1.36-4.72-2.16s-3.52-1.76-5.33-2.71-3.37-2.51-5-3.57h0a93,93,0,0,1-18.14-17.19,84.77,84.77,0,0,1-18.19-64.32,92.31,92.31,0,0,1,6.83-24.22v-.5h58.34c0,.7-39.3,53.87-48.64,66.58-.75,1.06,0,2.86,0,2.86l8.44,10.9a8.29,8.29,0,0,0,3.72,1.71Z"/>
</svg>
