<svg id="Layer_1" data-name="Layer 1" xmlns="http://www.w3.org/2000/svg" xmlns:xlink="http://www.w3.org/1999/xlink" viewBox="0 0 841.89 841.89">
  <defs>
    <style>
      .cls-1 {
        fill: url(#linear-gradient);
      }

      .cls-2 {
        fill: url(#linear-gradient-2);
      }

      .cls-3 {
        fill: url(#linear-gradient-3);
      }

      .cls-4 {
        fill: url(#linear-gradient-4);
      }

      .cls-5 {
        fill: url(#linear-gradient-5);
      }

      .cls-6 {
        fill: url(#linear-gradient-6);
      }

      .cls-7 {
        fill: url(#linear-gradient-7);
      }

      .cls-8 {
        fill: url(#linear-gradient-8);
      }

      .cls-9 {
        fill: url(#linear-gradient-9);
      }

      .cls-10 {
        fill: url(#linear-gradient-10);
      }

      .cls-11 {
        fill: url(#linear-gradient-11);
      }

      .cls-12 {
        fill: url(#linear-gradient-12);
      }

      .cls-13 {
        fill: url(#linear-gradient-13);
      }

      .cls-14 {
        fill: url(#linear-gradient-14);
      }

      .cls-15 {
        fill: url(#linear-gradient-15);
      }

      .cls-16 {
        fill: url(#linear-gradient-16);
      }

      .cls-17 {
        fill: url(#linear-gradient-17);
      }

      .cls-18 {
        fill: url(#linear-gradient-18);
      }

      .cls-19 {
        fill: url(#linear-gradient-19);
      }

      .cls-20 {
        fill: url(#linear-gradient-20);
      }

      .cls-21 {
        fill: url(#linear-gradient-21);
      }
    </style>
    <linearGradient id="linear-gradient" x1="131.49" y1="420.55" x2="682.16" y2="420.55" gradientUnits="userSpaceOnUse">
      <stop offset="0.08" stop-color="#b61e4c"/>
      <stop offset="0.39" stop-color="#75518f"/>
      <stop offset="0.58" stop-color="#526cb3"/>
      <stop offset="0.63" stop-color="#5d6eaa"/>
      <stop offset="0.71" stop-color="#7b7292"/>
      <stop offset="0.82" stop-color="#ab796b"/>
      <stop offset="0.93" stop-color="#e1813e"/>
    </linearGradient>
    <linearGradient id="linear-gradient-2" x1="484.15" y1="486.62" x2="564.73" y2="486.62" xlink:href="#linear-gradient"/>
    <linearGradient id="linear-gradient-3" x1="521.72" y1="234.99" x2="548.01" y2="234.99" xlink:href="#linear-gradient"/>
    <linearGradient id="linear-gradient-4" x1="514.09" y1="312.8" x2="514.27" y2="312.8" xlink:href="#linear-gradient"/>
    <linearGradient id="linear-gradient-5" x1="456.84" y1="255.72" x2="457.01" y2="255.72" xlink:href="#linear-gradient"/>
    <linearGradient id="linear-gradient-6" x1="457.02" y1="255.55" x2="457.2" y2="255.55" xlink:href="#linear-gradient"/>
    <linearGradient id="linear-gradient-7" x1="514.27" y1="312.61" x2="514.43" y2="312.61" xlink:href="#linear-gradient"/>
    <linearGradient id="linear-gradient-8" x1="567.72" y1="318.83" x2="600.6" y2="318.83" xlink:href="#linear-gradient"/>
    <linearGradient id="linear-gradient-9" x1="436.51" y1="171.18" x2="436.65" y2="171.18" xlink:href="#linear-gradient"/>
    <linearGradient id="linear-gradient-10" x1="554.54" y1="234.99" x2="580.89" y2="234.99" xlink:href="#linear-gradient"/>
    <linearGradient id="linear-gradient-11" x1="560.43" y1="294.52" x2="560.43" y2="294.52" xlink:href="#linear-gradient"/>
    <linearGradient id="linear-gradient-12" x1="436.48" y1="252.99" x2="616.99" y2="252.99" xlink:href="#linear-gradient"/>
    <linearGradient id="linear-gradient-13" x1="488.86" y1="234.99" x2="515.15" y2="234.99" xlink:href="#linear-gradient"/>
    <linearGradient id="linear-gradient-14" x1="455.96" y1="234.99" x2="482.25" y2="234.99" xlink:href="#linear-gradient"/>
    <linearGradient id="linear-gradient-15" x1="455.96" y1="267.79" x2="482.25" y2="267.79" xlink:href="#linear-gradient"/>
    <linearGradient id="linear-gradient-16" x1="488.84" y1="267.79" x2="515.13" y2="267.79" xlink:href="#linear-gradient"/>
    <linearGradient id="linear-gradient-17" x1="455.96" y1="300.71" x2="482.25" y2="300.71" xlink:href="#linear-gradient"/>
    <linearGradient id="linear-gradient-18" x1="488.84" y1="300.71" x2="515.13" y2="300.71" xlink:href="#linear-gradient"/>
    <linearGradient id="linear-gradient-19" x1="521.72" y1="267.79" x2="548.01" y2="267.79" xlink:href="#linear-gradient"/>
    <linearGradient id="linear-gradient-20" x1="554.54" y1="267.79" x2="580.89" y2="267.79" xlink:href="#linear-gradient"/>
    <linearGradient id="linear-gradient-21" x1="521.72" y1="300.71" x2="548.01" y2="300.71" xlink:href="#linear-gradient"/>
  </defs>
  <title>booking</title>
  <g>
    <path class="cls-1" d="M612.21,0H433.85A70,70,0,0,0,363.9,69.95V234.28L202.77,362.6a11.32,11.32,0,0,0-.95.86,70.64,70.64,0,0,0-20.36,49.79v281.2h-22a28,28,0,0,0-28,28v90.69a28,28,0,0,0,28,28H450a28,28,0,0,0,28-28V722.43a28,28,0,0,0-28-28H438.63V670.72a71.15,71.15,0,0,0,60.56-70.27V556.07h113a70,70,0,0,0,69.95-69.95V69.95A70,70,0,0,0,612.21,0ZM440,344.57l-10.7-10.7a10.5,10.5,0,0,0-13.93-.81l-30.51,24.16V90.84H661.17V416.18H446.29A56,56,0,0,0,440,344.57ZM433.85,21H612.21a49,49,0,0,1,49,48.87H384.89a49,49,0,0,1,49-48.87ZM457,722.43v90.69a7,7,0,0,1-7,7H159.47a7,7,0,0,1-7-7V722.43a7,7,0,0,1,7-7H450a7,7,0,0,1,7,7Zm21.2-122a50.12,50.12,0,0,1-50.07,50.07A10.49,10.49,0,0,0,417.65,661v33.44H202.44V413.25a49.75,49.75,0,0,1,13.92-34.64L363.9,261.11V373.83L270,448.22a10.49,10.49,0,0,0,13,16.45L421.1,355.3l4.1,4.1a35,35,0,0,1,0,49.4L361,473a10.51,10.51,0,0,0-3.06,6.82l-.8,14c0,.2,0,.4,0,.61a70.81,70.81,0,0,0,7,30.23,71.78,71.78,0,0,1-5.22,69.95,10.49,10.49,0,0,0-1.76,5.82v30.28a10.49,10.49,0,1,0,21,0V603.52a92.93,92.93,0,0,0,12.62-62.42,69.58,69.58,0,0,0,43.17,15h44.35Zm134-65.36H433.85a49,49,0,0,1-49-49v-7.34l41.63-41.63H661.19v49a49,49,0,0,1-49,49Zm0,0"/>
    <rect class="cls-2" x="484.15" y="474.45" width="80.58" height="24.34" rx="9.43" ry="9.43"/>
  </g>
  <g>
    <g>
      <path class="cls-3" d="M521.73,245a2.93,2.93,0,0,0,.8,2,3.76,3.76,0,0,0,3,1.21c2.11,0,18.91.06,19.81-.13a3,3,0,0,0,2.57-2.93s.22-20.13,0-20.38a2.93,2.93,0,0,0-2.35-2.72c-.15-.18-20.14-.19-20.65-.17a3.25,3.25,0,0,0-3.17,3.2C521.71,226.14,521.73,241.92,521.73,245Zm6.36-10.25h0Zm12-6.09c.64,0,1.07.17,1.11.88,0,.11-.08,7.48-.09,10.5,0,1.07-.07,1.14-1.12,1.14-1.84,0-8.47,0-9.2,0-2.44,0-2.15.3-2.2-2.18,0-1.39,0-7.06,0-7.9,0-2.45,0-2.43,2.44-2.46C531.55,228.63,538,228.64,540,228.63Z"/>
      <path class="cls-4" d="M514.27,312.7l-.18.18A.24.24,0,0,0,514.27,312.7Z"/>
      <path class="cls-5" d="M456.84,255.81l.17-.18A.22.22,0,0,0,456.84,255.81Z"/>
      <path class="cls-6" d="M457,255.63l.18-.17A.22.22,0,0,0,457,255.63Z"/>
      <path class="cls-7" d="M514.43,312.52l-.16.18A.21.21,0,0,0,514.43,312.52Z"/>
      <path class="cls-8" d="M599.33,314.9a3.23,3.23,0,0,0,1.27-2.42,3.16,3.16,0,0,0-1.8-3.11,3.12,3.12,0,0,0-3.5.34c-.81.59-12.94,10.29-14,11.28h0c-.39,0-.57-.32-.79-.54-1.52-1.51-6.33-6.36-7.25-7.23a3.17,3.17,0,0,0-5,.7,3,3,0,0,0,.42,4q4.94,5,9.92,9.93a3.22,3.22,0,0,0,3.83.48c.06-.05.11-.13.19-.17h0l-.19.17a.25.25,0,0,0,.19-.17h0C583.84,327.39,598.67,315.43,599.33,314.9Z"/>
    </g>
    <path class="cls-9" d="M436.65,171.09l-.14.18Z"/>
    <path class="cls-10" d="M554.55,245a2.93,2.93,0,0,0,.8,2,3.76,3.76,0,0,0,3,1.21c2.11,0,18.91.06,19.81-.13a3,3,0,0,0,2.57-2.93h0c.22-.26.14-.58.14-.87,0-6.22.08-19.26-.15-19.51a2.93,2.93,0,0,0-2.35-2.72c-.15-.18-.55-.14-.55-.14H559.26s-1,0-1.54,0a3.25,3.25,0,0,0-3.17,3.2C554.52,226.14,554.54,241.92,554.55,245Zm6.36-10.25h0Zm12-6.09c.64,0,1.07.17,1.11.88,0,.11-.08,7.48-.09,10.5,0,1.07-.07,1.14-1.12,1.14-1.84,0-8.47,0-9.2,0-2.44,0-2.15.3-2.2-2.18,0-1.39,0-7.06,0-7.9,0-2.45,0-2.43,2.44-2.46C564.36,228.63,570.86,228.64,572.86,228.63Z"/>
    <polygon class="cls-11" points="560.43 294.52 560.43 294.52 560.43 294.52 560.43 294.52"/>
    <path class="cls-12" d="M617,317.25v-2c0-.43.14-.87-.14-1.27h0a16.29,16.29,0,0,0-.91-5.1h0a4.42,4.42,0,0,0-.36-1.49,32.48,32.48,0,0,0-8.46-13.76,30.69,30.69,0,0,0-5.8-4.48,1.14,1.14,0,0,1-.68-1.15c0-.72,0-1.45,0-2.18,0-3,0-113.79-.16-114h0a2.94,2.94,0,0,0-2.87-2.52H580.89v-3.16a10.1,10.1,0,0,0-10.1-10.1h0a10.1,10.1,0,0,0-10.1,10.1v3.16h-5.6v-3.16A10.1,10.1,0,0,0,545,156h0a10.1,10.1,0,0,0-10.1,10.1v3.16h-6.3v-3.16A10.1,10.1,0,0,0,518.5,156h0a10.1,10.1,0,0,0-10.1,10.1v3.16h-5.74v-3.16A10.14,10.14,0,0,0,492.47,156h0a10.14,10.14,0,0,0-10.19,10.1v3.16h-6.16v-3.16A10.1,10.1,0,0,0,466,156h0a10.1,10.1,0,0,0-10.1,10.1v3.16H439.3a2.89,2.89,0,0,0-2.66,1.82h0l-.14.18c-.07.23,0,160.22.13,160.53a2.89,2.89,0,0,0,2.19,1.64h0a2.11,2.11,0,0,0,1.32.16c25.72,0,105.44,0,114.58,0a1.58,1.58,0,0,1,1.57.88,30.91,30.91,0,0,0,4.7,6,31.48,31.48,0,0,0,4.76,3.91,16.45,16.45,0,0,0,3.54,2,.64.64,0,0,1,.22.16.26.26,0,0,0,.15,0,.64.64,0,0,1,.22.16.27.27,0,0,0,.15,0,.77.77,0,0,1,.21.15.31.31,0,0,0,.16,0l.2.15.18,0h0a8.93,8.93,0,0,0,2.13.93,20.94,20.94,0,0,0,4.59,1.24c.21.22.48.17.73.17h0l.33,0h0a7.59,7.59,0,0,0,2.38.37.94.94,0,0,1,0,.16h6.54a1.57,1.57,0,0,1,0-.17,24.6,24.6,0,0,0,5.27-1,.34.34,0,0,0,.36-.14h0a.42.42,0,0,0,.17,0h0a20.85,20.85,0,0,0,4.37-1.63.37.37,0,0,0,.36-.17h0A19.94,19.94,0,0,0,603,344a15.41,15.41,0,0,0,3.45-2.75.83.83,0,0,1,.19-.19h0a.69.69,0,0,1,.19-.19h0a.64.64,0,0,1,.19-.19h0a16.74,16.74,0,0,0,2.88-3.12h0A21.18,21.18,0,0,0,612.4,334h0a24.39,24.39,0,0,0,2.57-5.44h0a19,19,0,0,0,1-3,9.78,9.78,0,0,0,.5-2.46c0-.08.12-.15.13-.23A27.26,27.26,0,0,0,617,317.25Zm-16.52-61.08h0Zm-8.73-80.54h0Zm-24.14-9.78a3.23,3.23,0,0,1,6.45,0v13.1a3.23,3.23,0,0,1-6.45,0Zm-25.79,0a3.23,3.23,0,0,1,6.45,0v13.1a3.23,3.23,0,0,1-6.45,0Zm-26.5,0a3.23,3.23,0,0,1,6.45,0v13.1a3.23,3.23,0,0,1-6.45,0v-3.11h0v-6.56h0Zm-26.06,0a3.26,3.26,0,0,1,6.52,0v13.1a3.26,3.26,0,0,1-6.52,0Zm-26.42,0a3.23,3.23,0,0,1,6.45,0v13.1a3.23,3.23,0,0,1-6.45,0v-9.67h0ZM442.65,279.44h0Zm0-61.08v0l0,0Zm.18-42.54h13.09v2.9a10.1,10.1,0,0,0,10.1,10.1h0a10.1,10.1,0,0,0,10.1-10.1v-2.91h6.16v2.91a10.14,10.14,0,0,0,10.19,10.1h0a10.14,10.14,0,0,0,10.19-10.1v-2.9h5.74v2.9a10.1,10.1,0,0,0,10.1,10.1h0a10.1,10.1,0,0,0,10.1-10.1v-2.88h6.3v2.87a10.1,10.1,0,0,0,10.1,10.1h0a10.1,10.1,0,0,0,10.1-10.1v-2.85h5.6v2.84a10.1,10.1,0,0,0,10.1,10.1h0a10.1,10.1,0,0,0,10.1-10.1V176c7.9,0,12.74.08,12.79.13.26.46.26,26,.21,26h0c-.3,0-.6,0-.9,0-8.67,0-147.76-.05-148.83-.09-.32,0-.66.09-.91-.22C442.93,200.81,442.83,176.26,442.84,175.83Zm10.38,32.73h0Zm.2,124.87.12-.08a.57.57,0,0,1,0,.08Zm104-35.26a21.66,21.66,0,0,0-2.93,5.08h0a1,1,0,0,0-.13.17,27,27,0,0,0-1.66,4.55h0a.45.45,0,0,0,0,.18.35.35,0,0,0-.15.36h0a23.76,23.76,0,0,0-.93,5.1h0l0,.52c-.29.46-.13,1-.15,1.47h0q0,2,0,4a2.4,2.4,0,0,0-.05.65,2.67,2.67,0,0,0,.07.54,3.32,3.32,0,0,1,.08,1.08,15.79,15.79,0,0,0,.77,4c.2.66.12,1-.62,1.13a.7.7,0,0,1-.08.12c-.17-.19-67.44,0-70.17,0,0,0-37.22-.14-38.2-.38a.51.51,0,0,1-.09-.09c.09-.37-.06-115,.1-117.47.14-.35.45-.32.75-.33s125.29-.09,148.84-.09c.36,0,.72,0,1.09,0h0l.2.06c0,3.45-.24,74.36-.25,75.65,0,.94-9.23.28-10.94.69-.24.06-9.94,1.18-10.25,1.32a36.39,36.39,0,0,0-4.91,2.34h0a16.6,16.6,0,0,0-3.65,2.5h0l-.18.07a.55.55,0,0,0-.15.15,18.53,18.53,0,0,0-3.3,3.08h0a.61.61,0,0,1-.19.19h0a.69.69,0,0,1-.2.19,16.77,16.77,0,0,0-2.69,3.28h0ZM610.24,318a52.06,52.06,0,0,1-.75,5.62,2,2,0,0,0,0,.2.34.34,0,0,0-.15.2c-.53,1.75-1.3,3.42-1.92,5.14a.63.63,0,0,0,0,.14,2.84,2.84,0,0,0-1.05,1.43c-.41.79-1.2,1.36-1.3,2.31l0,0h0l-.1,0a.75.75,0,0,0-.16.11l-.07.07-.13.15-.12.15a2.26,2.26,0,0,1-.25.2c-.63.79-1.54,1.35-1.9,2.35a.63.63,0,0,0-.18.07l-.1.07-.19.15-.1.07-.21.12c-1,.69-1.94,1.51-2.92,2.24a.41.41,0,0,0-.15.27h0a1,1,0,0,0-.6.16,26.34,26.34,0,0,1-4.41,2.22.6.6,0,0,0-.43.43l.05.05h0a.71.71,0,0,0-.69-.08c-1.37.35-2.74.76-4.14,1a.53.53,0,0,0-.35.17l-.35,0a30.45,30.45,0,0,1-6.32,0,1,1,0,0,0-.76.18l-.07-.08a2.11,2.11,0,0,0-1.1-.36,25.47,25.47,0,0,1-9.06-3.54,2.25,2.25,0,0,0-1.22-.55.91.91,0,0,0-.06.11.58.58,0,0,1,0-.07c0-.57-.51-.71-.84-1a26.83,26.83,0,0,1-6.58-7.55c-.73-1.22-1.17-2.59-1.93-3.79l-.18-.11a39.31,39.31,0,0,1-1.39-5.57c0-.37.1-.77-.16-1.1h0l0-.53a57.44,57.44,0,0,1,.2-6,.4.4,0,0,0,.06-.16,9.89,9.89,0,0,0,.39-1.75c.26-1.21.74-2.35,1-3.55h0a11.17,11.17,0,0,0,.76-1.61c.6-1.09,1.18-2.2,1.77-3.3,1-1.29,2-2.62,3.08-3.84l2.37-2.18c.07-.05.12-.12.19-.17h0a.74.74,0,0,1,.21-.18.41.41,0,0,0,.17,0,.47.47,0,0,0,.15-.14h0l.19-.16h0l3.82-2.37h0a.29.29,0,0,0,.17,0h0c.55-.24,1.12-.46,1.66-.72,1.06-.52,2.23-.72,3.29-1.22h0a2.56,2.56,0,0,0,.45,0,27.6,27.6,0,0,1,5-.75h.55c.39,0,.78,0,1.17,0a20.52,20.52,0,0,1,4.47.4c1,.18,1.89.43,2.84.65l.15.17c1.38.74,2.89,1.21,4.28,1.95a25.91,25.91,0,0,1,10.93,10.89c.21.39.33.85.74,1.11l.13,0a12.76,12.76,0,0,0,1.63,4.6.45.45,0,0,0-.16.28,34.78,34.78,0,0,1,.64,6.2.71.71,0,0,0,.2.56Z"/>
    <path class="cls-13" d="M488.87,245a2.93,2.93,0,0,0,.8,2,3.76,3.76,0,0,0,3,1.21c2.11,0,18.91.06,19.81-.13a3,3,0,0,0,2.57-2.93s.22-20.13,0-20.38a2.93,2.93,0,0,0-2.35-2.72c-.15-.18-20.14-.19-20.65-.17a3.25,3.25,0,0,0-3.17,3.2C488.84,226.14,488.86,241.92,488.87,245Zm6.36-10.25h0Zm12-6.09c.64,0,1.07.17,1.11.88,0,.11-.08,7.48-.09,10.5,0,1.07-.07,1.14-1.12,1.14-1.84,0-8.47,0-9.2,0-2.44,0-2.15.3-2.2-2.18,0-1.39,0-7.06,0-7.9,0-2.45,0-2.43,2.44-2.46C498.68,228.63,505.18,228.64,507.18,228.63Z"/>
    <path class="cls-14" d="M456,245a2.93,2.93,0,0,0,.8,2,3.76,3.76,0,0,0,3,1.21c2.11,0,18.91.06,19.81-.13a3,3,0,0,0,2.57-2.93s.22-20.13,0-20.38a2.93,2.93,0,0,0-2.35-2.72c-.15-.18-20.14-.19-20.65-.17A3.25,3.25,0,0,0,456,225C455.95,226.14,456,241.92,456,245Zm6.36-10.25h0Zm12-6.09c.64,0,1.07.17,1.11.88,0,.11-.08,7.48-.09,10.5,0,1.07-.07,1.14-1.12,1.14-1.84,0-8.47,0-9.2,0-2.44,0-2.15.3-2.2-2.18,0-1.39,0-7.06,0-7.9,0-2.45,0-2.43,2.44-2.46C465.78,228.63,472.28,228.64,474.28,228.63Z"/>
    <path class="cls-15" d="M456,277.78a2.93,2.93,0,0,0,.8,2,3.76,3.76,0,0,0,3,1.21c2.11,0,18.91.06,19.81-.13a3,3,0,0,0,2.57-2.93s.22-20.13,0-20.38a2.93,2.93,0,0,0-2.35-2.72c-.15-.18-20.14-.19-20.65-.17a3.25,3.25,0,0,0-3.17,3.2C455.95,258.94,456,274.73,456,277.78Zm6.36-10.25h0Zm12-6.09c.64,0,1.07.17,1.11.88,0,.11-.08,7.48-.09,10.5,0,1.07-.07,1.14-1.12,1.14-1.84,0-8.47,0-9.2,0-2.44,0-2.15.3-2.2-2.18,0-1.39,0-7.06,0-7.9,0-2.45,0-2.43,2.44-2.46C465.78,261.44,472.28,261.45,474.28,261.43Z"/>
    <path class="cls-16" d="M488.85,277.78a2.93,2.93,0,0,0,.8,2,3.76,3.76,0,0,0,3,1.21c2.11,0,18.91.06,19.81-.13A3,3,0,0,0,515,277.9s.22-20.13,0-20.38a2.93,2.93,0,0,0-2.35-2.72c-.15-.18-20.14-.19-20.65-.17a3.25,3.25,0,0,0-3.17,3.2C488.83,258.94,488.85,274.73,488.85,277.78Zm6.36-10.25h0Zm12-6.09c.64,0,1.07.17,1.11.88,0,.11-.08,7.48-.09,10.5,0,1.07-.07,1.14-1.12,1.14-1.84,0-8.47,0-9.2,0-2.44,0-2.15.3-2.2-2.18,0-1.39,0-7.06,0-7.9,0-2.45,0-2.43,2.44-2.46C498.67,261.44,505.17,261.45,507.16,261.43Z"/>
    <path class="cls-17" d="M456,310.69a2.93,2.93,0,0,0,.8,2,3.76,3.76,0,0,0,3,1.21c2.11,0,18.91.06,19.81-.13a3,3,0,0,0,2.57-2.93s.22-20.13,0-20.38a2.93,2.93,0,0,0-2.35-2.72c-.15-.18-20.14-.19-20.65-.17a3.25,3.25,0,0,0-3.17,3.2C455.95,291.85,456,307.64,456,310.69Zm6.36-10.25h0Zm12-6.09c.64,0,1.07.17,1.11.88,0,.11-.08,7.48-.09,10.5,0,1.07-.07,1.14-1.12,1.14-1.84,0-8.47,0-9.2,0-2.44,0-2.15.3-2.2-2.18,0-1.39,0-7.06,0-7.9,0-2.45,0-2.43,2.44-2.46C465.78,294.35,472.28,294.36,474.28,294.35Z"/>
    <path class="cls-18" d="M488.85,310.69a2.93,2.93,0,0,0,.8,2,3.76,3.76,0,0,0,3,1.21c2.11,0,18.91.06,19.81-.13a3,3,0,0,0,2.57-2.93s.22-20.13,0-20.38a2.93,2.93,0,0,0-2.35-2.72c-.15-.18-20.14-.19-20.65-.17a3.25,3.25,0,0,0-3.17,3.2C488.83,291.85,488.85,307.64,488.85,310.69Zm6.36-10.25h0Zm12-6.09c.64,0,1.07.17,1.11.88,0,.11-.08,7.48-.09,10.5,0,1.07-.07,1.14-1.12,1.14-1.84,0-8.47,0-9.2,0-2.44,0-2.15.3-2.2-2.18,0-1.39,0-7.06,0-7.9,0-2.45,0-2.43,2.44-2.46C498.67,294.35,505.17,294.36,507.16,294.35Z"/>
    <path class="cls-19" d="M521.73,277.78a2.93,2.93,0,0,0,.8,2,3.76,3.76,0,0,0,3,1.21c2.11,0,18.91.06,19.81-.13a3,3,0,0,0,2.57-2.93s.22-20.13,0-20.38a2.93,2.93,0,0,0-2.35-2.72c-.15-.18-20.14-.19-20.65-.17a3.25,3.25,0,0,0-3.17,3.2C521.71,258.94,521.73,274.73,521.73,277.78Zm6.36-10.25h0Zm12-6.09c.64,0,1.07.17,1.11.88,0,.11-.08,7.48-.09,10.5,0,1.07-.07,1.14-1.12,1.14-1.84,0-8.47,0-9.2,0-2.44,0-2.15.3-2.2-2.18,0-1.39,0-7.06,0-7.9,0-2.45,0-2.43,2.44-2.46C531.55,261.44,538,261.45,540,261.43Z"/>
    <path class="cls-20" d="M554.55,277.78a2.93,2.93,0,0,0,.8,2,3.76,3.76,0,0,0,3,1.21c2.11,0,18.91.06,19.81-.13a3,3,0,0,0,2.57-2.93h0c.22-.26.14-.58.14-.87,0-6.22.08-19.26-.15-19.51a2.93,2.93,0,0,0-2.35-2.72c-.15-.18-.55-.14-.55-.14H559.26s-1,0-1.54,0a3.25,3.25,0,0,0-3.17,3.2C554.52,258.94,554.54,274.73,554.55,277.78Zm6.36-10.25h0Zm12-6.09c.64,0,1.07.17,1.11.88,0,.11-.08,7.48-.09,10.5,0,1.07-.07,1.14-1.12,1.14-1.84,0-8.47,0-9.2,0-2.44,0-2.15.3-2.2-2.18,0-1.39,0-7.06,0-7.9,0-2.45,0-2.43,2.44-2.46C564.36,261.44,570.86,261.45,572.86,261.43Z"/>
    <path class="cls-21" d="M521.73,310.69a2.93,2.93,0,0,0,.8,2,3.76,3.76,0,0,0,3,1.21c2.11,0,18.91.06,19.81-.13a3,3,0,0,0,2.57-2.93s.22-20.13,0-20.38a2.93,2.93,0,0,0-2.35-2.72c-.15-.18-20.14-.19-20.65-.17a3.25,3.25,0,0,0-3.17,3.2C521.71,291.85,521.73,307.64,521.73,310.69Zm6.36-10.25h0Zm12-6.09c.64,0,1.07.17,1.11.88,0,.11-.08,7.48-.09,10.5,0,1.07-.07,1.14-1.12,1.14-1.84,0-8.47,0-9.2,0-2.44,0-2.15.3-2.2-2.18,0-1.39,0-7.06,0-7.9,0-2.45,0-2.43,2.44-2.46C531.55,294.35,538,294.36,540,294.35Z"/>
  </g>
</svg>
