<svg id="Layer_1" data-name="Layer 1" xmlns="http://www.w3.org/2000/svg" xmlns:xlink="http://www.w3.org/1999/xlink" viewBox="0 0 132.5 48.8"><defs><style>.cls-1{fill:url(#linear-gradient);}.cls-2{fill:#b61649;}.cls-3{fill:url(#linear-gradient-2);}.cls-4{fill:#d88022;}</style><linearGradient id="linear-gradient" y1="24.4" x2="38.43" y2="24.4" gradientUnits="userSpaceOnUse"><stop offset="0.27" stop-color="#b61f4c"/><stop offset="0.32" stop-color="#b0224f"/><stop offset="0.39" stop-color="#a02c57"/><stop offset="0.47" stop-color="#853c65"/><stop offset="0.55" stop-color="#605278"/><stop offset="0.6" stop-color="#476185"/><stop offset="0.66" stop-color="#59657a"/><stop offset="0.77" stop-color="#876f5d"/><stop offset="0.93" stop-color="#d07f2e"/><stop offset="0.94" stop-color="#d88129"/></linearGradient><linearGradient id="linear-gradient-2" x1="80.04" y1="23.17" x2="97.61" y2="23.17" gradientUnits="userSpaceOnUse"><stop offset="0" stop-color="#b61f4c"/><stop offset="0.08" stop-color="#b0224f"/><stop offset="0.18" stop-color="#a02c57"/><stop offset="0.3" stop-color="#853c65"/><stop offset="0.42" stop-color="#605278"/><stop offset="0.53" stop-color="#376a8d"/><stop offset="0.94" stop-color="#d88129"/></linearGradient></defs><title>logozen</title><path class="cls-1" d="M35.87,34l.42,0h0a.18.18,0,0,0,.16-.14L37,31.24c.31-.9.49-1.83.72-2.75a18,18,0,0,0,.14-9.1,24.48,24.48,0,0,0-1.45-3.87,22.29,22.29,0,0,0-1.22-2.1A9.86,9.86,0,0,0,34,11.71a12.32,12.32,0,0,0-1.43-1.52c-.38-.39-.78-.72-1.19-1.06s-.77-.58-1.16-.87-1.3-.81-1.52-.94A22.76,22.76,0,0,0,26,6.09c-.19-.08-2.74-.78-2.74-.78A17,17,0,0,0,20.85,5c-.22,0-2.83,0-3,0a7.63,7.63,0,0,0-1,.09A19,19,0,0,0,4.67,11.85a1,1,0,1,0,1.55,1.26c.39-.46.78-.92,1.22-1.34A17.14,17.14,0,0,1,17.14,7l.76-.09s1.27-.1,1.7-.11,1,.08,1.25.1h0l.58,0h0l.85.14h0l1,.19L24,7.5l.67.2.66.24.68.25.77.36.95.49.76.46.66.42h0l1,.73h0c.35.3.71.58,1,.9a34.78,34.78,0,0,1,2.59,3.11,20.24,20.24,0,0,1,1.23,2.21,18.93,18.93,0,0,1,1.24,3.83h0c.07.53.13,1.07.2,1.6a16.41,16.41,0,0,1-.62,6,18.57,18.57,0,0,1-.82,2.91H24.17c0-1.68,0-3.46,0-5.14,0-.31.07-.41.39-.4.6,0,8.05,0,8.53,0L32,23c0-.07-.1-.06-.17-.05H24.47c-.18,0-.3,0-.29-.25,0-1.71,0-3.42,0-5.14l6.49,0,2.12,0c.24,0,.26-.1.18-.29Q32.52,16.16,32,15a.3.3,0,0,0-.32-.22c-.34,0-10.13,0-10.28.05h0c0,.17-.05,16.19-.06,16.38H9.4a.85.85,0,0,1,.22-.41c2.92-4.21,5.83-8.42,8.78-12.61A1.66,1.66,0,0,0,18.46,17c-.23-.57-.47-1.14-.68-1.71-.12-.32-.62-.3-.62-.3s-14.26-.07-14.51,0h0a8.29,8.29,0,0,0-.85,1.83A18.41,18.41,0,0,0,.22,27.59a18.68,18.68,0,0,0,5.62,10.9,15.76,15.76,0,0,0,3.38,2.58h0a10,10,0,0,0,1,.6h0a5.68,5.68,0,0,0,.94.46,4.17,4.17,0,0,0,.87.37,9.22,9.22,0,0,0,1.34.47,5.85,5.85,0,0,0,1,.3c.29.06,2.35.42,2.67.46a5.1,5.1,0,0,0,.76.08h1a4.82,4.82,0,0,0,1,0,4.82,4.82,0,0,0,1.24-.09,2.93,2.93,0,0,0,.86-.11l1-.19.76-.19a2.65,2.65,0,0,0,.86-.25h0a2.37,2.37,0,0,0,.86-.29h0a2.69,2.69,0,0,0,.85-.32,2.36,2.36,0,0,0,.77-.35,1.84,1.84,0,0,0,.66-.31,3.34,3.34,0,0,0,.77-.43h0a3.35,3.35,0,0,0,.85-.53,1.71,1.71,0,0,0,.56-.34,18,18,0,0,0,3.87-3.62,1,1,0,0,0-.12-1.4,1,1,0,0,0-1.36.1,22.44,22.44,0,0,1-3.05,3,6.21,6.21,0,0,0-1,.68h0a3.25,3.25,0,0,0-.78.47h0a1.49,1.49,0,0,0-.54.29,3.2,3.2,0,0,0-.76.38l-.86.38a2.9,2.9,0,0,0-.76.28h0a3.48,3.48,0,0,0-.86.27h0l-.76.2a3.55,3.55,0,0,0-1,.2L21,41.77a.57.57,0,0,0-.29,0l-2.74,0h-.1l-.95-.09-.67-.1-.95-.19-.86-.21h0l-1-.32-1.06-.42c-.31-.14-.63-.27-.94-.43s-.7-.35-1.06-.54-.67-.5-1-.71h0a18.5,18.5,0,0,1-3.61-3.42A16.87,16.87,0,0,1,2.15,22.54a18.37,18.37,0,0,1,1.36-4.82v-.1c.28,0,11.61,0,11.61,0h0c0,.14-7.82,10.72-9.68,13.25-.15.21,0,.57,0,.57l1.68,2.17a1.65,1.65,0,0,0,.74.34Z"/><path class="cls-2" d="M47.54,13.22H62L53,29h8.66v4.12H46.36l9-15.81H47.54Z"/><path class="cls-2" d="M65.41,13.22h11.2v3.94H69.7v4h6.91v3.88H69.7v4.12h6.91v3.94H65.41Z"/><path class="cls-3" d="M93.41,13.22h4.2v19.9H93.43l-9.1-12.88V33.12H80V13.22h4.24L93.41,26Z"/><path class="cls-4" d="M101.61,13.22h4.23V25.39a3.89,3.89,0,0,0,.94,2.73,3.18,3.18,0,0,0,2.47,1,3.55,3.55,0,0,0,2.73-1,4.13,4.13,0,0,0,1-2.93v-12h4.21V26.1a8.11,8.11,0,0,1-.88,3.52,6.09,6.09,0,0,1-2.71,2.8,8.57,8.57,0,0,1-4.08,1q-4.09,0-6-2.28a7.41,7.41,0,0,1-1.89-4.8Z"/><path class="cls-4" d="M121.34,13.22h11.2v3.94h-6.91v4h6.91v3.88h-6.91v4.12h6.91v3.94h-11.2Z"/></svg>