<svg id="Layer_1" data-name="Layer 1" xmlns="http://www.w3.org/2000/svg" xmlns:xlink="http://www.w3.org/1999/xlink" viewBox="0 0 841.89 841.89">
  <defs>
    <style>
      .cls-1 {
        fill: url(#linear-gradient);
      }

      .cls-2 {
        fill: url(#linear-gradient-2);
      }

      .cls-3 {
        fill: url(#linear-gradient-3);
      }

      .cls-4 {
        fill: url(#linear-gradient-4);
      }

      .cls-5 {
        fill: url(#linear-gradient-5);
      }
    </style>
    <linearGradient id="linear-gradient" x1="12.04" y1="420.94" x2="829.85" y2="420.94" gradientUnits="userSpaceOnUse">
      <stop offset="0.08" stop-color="#b61e4c"/>
      <stop offset="0.39" stop-color="#75518f"/>
      <stop offset="0.58" stop-color="#526cb3"/>
      <stop offset="0.63" stop-color="#5d6eaa"/>
      <stop offset="0.71" stop-color="#7b7292"/>
      <stop offset="0.82" stop-color="#ab796b"/>
      <stop offset="0.93" stop-color="#e1813e"/>
    </linearGradient>
    <linearGradient id="linear-gradient-2" x1="461.31" y1="285.03" x2="537.3" y2="209.04" gradientUnits="userSpaceOnUse">
      <stop offset="0.17" stop-color="#526cb3"/>
      <stop offset="0.26" stop-color="#696fa1"/>
      <stop offset="0.52" stop-color="#a67871"/>
      <stop offset="0.71" stop-color="#cc7e52"/>
      <stop offset="0.81" stop-color="#da8047"/>
    </linearGradient>
    <linearGradient id="linear-gradient-3" x1="546.73" y1="302.95" x2="625.26" y2="224.42" xlink:href="#linear-gradient-2"/>
    <linearGradient id="linear-gradient-4" x1="635.59" y1="284.77" x2="694.58" y2="225.77" xlink:href="#linear-gradient-2"/>
    <linearGradient id="linear-gradient-5" x1="706" y1="284.87" x2="781.92" y2="208.95" xlink:href="#linear-gradient-2"/>
  </defs>
  <title>mitra</title>
  <g>
    <path class="cls-1" d="M829.85,394.56V91.18H407.75V291.41a131.88,131.88,0,0,0-96.24-41.94h-14a118.51,118.51,0,0,0,44.25-92.33V112.22A100.29,100.29,0,0,0,241.62,12H204.54A100.29,100.29,0,0,0,104.37,112.22v44.91a118.51,118.51,0,0,0,44.25,92.33H130.76A118.84,118.84,0,0,0,12,368.18v131.9a79.22,79.22,0,0,0,79.14,79.14V829.85H355V401l33.82,54.12a39.37,39.37,0,0,0,33.56,18.6H486.9a52.82,52.82,0,0,0,52.76-52.76,52.25,52.25,0,0,0-7.33-26.38h46.91V539.66H407.75V618.8h52.76v26.38H407.75v79.14h52.76v26.38H407.75v79.14H829.85V750.71H777.09V724.33h52.76V645.18H777.09V618.8h52.76V539.66H658.37V394.56ZM460.52,803.47H434.14V777.09h26.38Zm0-105.52H434.14V671.56h26.38Zm0-105.52H434.14V566h26.38Zm52.76,211H486.9V566h26.38ZM777.09,566h26.38v26.38H777.09Zm0,105.52h26.38v26.38H777.09Zm0,105.52h26.38v26.38H777.09ZM724.33,566h26.38V803.47H724.33ZM204.56,38.42h37.08a73.9,73.9,0,0,1,73.36,66H300a13.26,13.26,0,0,1-9.33-3.86l-28-28-28,28a13.26,13.26,0,0,1-9.33,3.86H131.19a73.89,73.89,0,0,1,73.36-66Zm-73.8,118.71V130.76h94.6a39.34,39.34,0,0,0,28-11.59l9.33-9.33,9.33,9.33a39.27,39.27,0,0,0,28,11.59h15.46v26.38a92.33,92.33,0,0,1-184.67,0Zm92.33,192.58,52.76-65.95V526.47H170.33V283.78Zm-25.32-73.87h50.63L223.09,307.5Zm-106.59,277a52.59,52.59,0,0,1-45.43-26.38H91.18Zm0-52.76H38.42V368.18a92.46,92.46,0,0,1,92.33-92.33h13.19V526.47H117.56V341.8H91.18ZM209.9,803.47H117.56V777.09H209.9Zm118.71,0H236.28V777.09h92.33Zm0-52.76H236.28V605.61H209.9V750.71H117.56V552.85h211Zm131.9-303.38H422.37a13.13,13.13,0,0,1-11.19-6.21L355,351.2v-9.4H328.61V526.47H302.23V275.85h9.28a105.63,105.63,0,0,1,92.26,54.27l35.78,64.45h21Zm26.38,0V394.56a26.38,26.38,0,1,1,0,52.76Zm211,356.14H539.66V777.09H697.94Zm0-52.76H539.66V724.33H697.94Zm0-52.76H539.66V671.56H697.94Zm0-52.76H539.66V618.8H697.94Zm0-79.14v26.38H539.66V566Zm-92.33-26.38V394.56H632V539.66ZM486.9,368.18H455.1l-22-39.57h1v-211H803.47V368.18Zm0,0"/>
    <g>
      <path class="cls-2" d="M467.1,290.81V269.32a41.25,41.25,0,0,0,12.69,7.35,40.75,40.75,0,0,0,13.83,2.45,30.67,30.67,0,0,0,7.15-.74,16.79,16.79,0,0,0,5.1-2,8.94,8.94,0,0,0,3.06-3.09,7.71,7.71,0,0,0,1-3.86,8.35,8.35,0,0,0-1.61-5,17.37,17.37,0,0,0-4.4-4.1,45.93,45.93,0,0,0-6.62-3.63q-3.83-1.75-8.26-3.56-11.28-4.7-16.82-11.48a25.07,25.07,0,0,1-5.54-16.39,26.1,26.1,0,0,1,3-12.93,25.68,25.68,0,0,1,8.23-8.9A37,37,0,0,1,490,198.24a62,62,0,0,1,14.51-1.64,87.27,87.27,0,0,1,13.33.91,52.48,52.48,0,0,1,10.71,2.79v20.08a32.31,32.31,0,0,0-5.27-3,41.88,41.88,0,0,0-5.88-2.12,45,45,0,0,0-6-1.24,42.66,42.66,0,0,0-5.67-.4,29.57,29.57,0,0,0-6.71.7,17.21,17.21,0,0,0-5.1,2,9.84,9.84,0,0,0-3.22,3.06,7.23,7.23,0,0,0-1.14,4,7.63,7.63,0,0,0,1.28,4.33,14.6,14.6,0,0,0,3.63,3.63,38.45,38.45,0,0,0,5.71,3.36q3.36,1.65,7.59,3.39a84.69,84.69,0,0,1,10.38,5.14,36.9,36.9,0,0,1,7.89,6.14,24,24,0,0,1,5,7.82A31.24,31.24,0,0,1,529.72,281a24.79,24.79,0,0,1-8.29,8.87,35.93,35.93,0,0,1-12.19,4.87,70.43,70.43,0,0,1-14.67,1.48,81.67,81.67,0,0,1-15.08-1.34A45.5,45.5,0,0,1,467.1,290.81Z"/>
      <path class="cls-3" d="M633.3,294.51H609.67l-6.85-21.42H568.57l-6.78,21.42h-23.5l35.05-96.3h25.72Zm-35.46-38.08-10.34-32.37a42.08,42.08,0,0,1-1.61-8.66h-.54a36.82,36.82,0,0,1-1.68,8.39L573.2,256.43Z"/>
      <path class="cls-4" d="M702.68,294.51H645.32v-96.3H667v78.7h35.66Z"/>
      <path class="cls-5" d="M773.39,294.51H715.64v-96.3h55.54v17.66H737.33v21.42h31.49v17.59H737.33v22h36.06Z"/>
    </g>
  </g>
</svg>
