<svg id="Layer_1" data-name="Layer 1" xmlns="http://www.w3.org/2000/svg" xmlns:xlink="http://www.w3.org/1999/xlink" viewBox="0 0 841.89 841.89">
  <defs>
    <style>
      .cls-1 {
        mask: url(#mask);
        filter: url(#luminosity-noclip-2);
      }

      .cls-2 {
        mix-blend-mode: multiply;
        fill: url(#linear-gradient);
      }

      .cls-3 {
        fill: #010101;
      }

      .cls-4 {
        fill: url(#linear-gradient-2);
      }

      .cls-5 {
        fill: url(#linear-gradient-3);
      }

      .cls-6 {
        fill: url(#linear-gradient-4);
      }

      .cls-7 {
        fill: url(#linear-gradient-5);
      }

      .cls-8 {
        fill: url(#linear-gradient-6);
      }

      .cls-9 {
        fill: url(#linear-gradient-7);
      }

      .cls-10 {
        fill: #ee3242;
      }

      .cls-11 {
        mask: url(#mask-2);
      }

      .cls-12 {
        fill: url(#linear-gradient-8);
      }

      .cls-13 {
        fill: #fff;
      }

      .cls-14 {
        filter: url(#luminosity-noclip);
      }
    </style>
    <filter id="luminosity-noclip" x="236.35" y="-8438.34" width="378.81" height="32766" filterUnits="userSpaceOnUse" color-interpolation-filters="sRGB">
      <feFlood flood-color="#fff" result="bg"/>
      <feBlend in="SourceGraphic" in2="bg"/>
    </filter>
    <mask id="mask" x="236.35" y="-8438.34" width="378.81" height="32766" maskUnits="userSpaceOnUse">
      <g class="cls-14"/>
    </mask>
    <linearGradient id="linear-gradient" x1="425.75" y1="803.13" x2="425.75" y2="0.4" gradientUnits="userSpaceOnUse">
      <stop offset="0"/>
      <stop offset="0.29" stop-color="#020202"/>
      <stop offset="0.43" stop-color="#0a0a0a"/>
      <stop offset="0.53" stop-color="#171717"/>
      <stop offset="0.62" stop-color="#292929"/>
      <stop offset="0.7" stop-color="#414141"/>
      <stop offset="0.77" stop-color="#5e5e5e"/>
      <stop offset="0.84" stop-color="#818181"/>
      <stop offset="0.9" stop-color="#aaa"/>
      <stop offset="0.96" stop-color="#d7d7d7"/>
      <stop offset="1" stop-color="#fff"/>
    </linearGradient>
    <linearGradient id="linear-gradient-2" x1="600.91" y1="427.29" x2="615.4" y2="427.29" gradientUnits="userSpaceOnUse">
      <stop offset="0" stop-color="#f1f0f0"/>
      <stop offset="0.01" stop-color="#edecec"/>
      <stop offset="0.14" stop-color="#b4b4b4"/>
      <stop offset="0.28" stop-color="#858585"/>
      <stop offset="0.4" stop-color="#606060"/>
      <stop offset="0.52" stop-color="#464646"/>
      <stop offset="0.62" stop-color="#363636"/>
      <stop offset="0.7" stop-color="#303030"/>
    </linearGradient>
    <linearGradient id="linear-gradient-3" x1="234.8" y1="808.33" x2="607.11" y2="808.33" gradientUnits="userSpaceOnUse">
      <stop offset="0" stop-color="#010101"/>
      <stop offset="0.1" stop-color="#131313"/>
      <stop offset="0.25" stop-color="#2b2b2b"/>
      <stop offset="0.4" stop-color="#3a3a3a"/>
      <stop offset="0.52" stop-color="#3f3f3f"/>
      <stop offset="0.63" stop-color="#383838"/>
      <stop offset="0.8" stop-color="#232323"/>
      <stop offset="1" stop-color="#010101"/>
      <stop offset="1" stop-color="#010101"/>
    </linearGradient>
    <linearGradient id="linear-gradient-4" x1="234.8" y1="46.3" x2="615.43" y2="46.3" xlink:href="#linear-gradient-3"/>
    <linearGradient id="linear-gradient-5" x1="226.48" y1="427.04" x2="235.07" y2="427.04" gradientUnits="userSpaceOnUse">
      <stop offset="0" stop-color="#3f3f3f"/>
      <stop offset="0.03" stop-color="#3d3d3d"/>
      <stop offset="0.67" stop-color="#141414"/>
      <stop offset="1" stop-color="#040404"/>
    </linearGradient>
    <linearGradient id="linear-gradient-6" x1="600.87" y1="427.33" x2="615.4" y2="427.33" gradientUnits="userSpaceOnUse">
      <stop offset="0" stop-color="#040404"/>
      <stop offset="0.33" stop-color="#141414"/>
      <stop offset="0.97" stop-color="#3d3d3d"/>
      <stop offset="1" stop-color="#3f3f3f"/>
    </linearGradient>
    <linearGradient id="linear-gradient-7" x1="395.84" y1="44.32" x2="443.54" y2="44.32" gradientUnits="userSpaceOnUse">
      <stop offset="0" stop-color="#303030"/>
      <stop offset="0.11" stop-color="#262626"/>
      <stop offset="0.3" stop-color="#191919"/>
      <stop offset="0.48" stop-color="#151515"/>
      <stop offset="0.78" stop-color="#171717"/>
      <stop offset="0.89" stop-color="#1e1e1e"/>
      <stop offset="0.97" stop-color="#292929"/>
      <stop offset="1" stop-color="#303030"/>
    </linearGradient>
    <filter id="luminosity-noclip-2" x="236.35" y="0.4" width="378.81" height="802.73" filterUnits="userSpaceOnUse" color-interpolation-filters="sRGB">
      <feFlood flood-color="#fff" result="bg"/>
      <feBlend in="SourceGraphic" in2="bg"/>
    </filter>
    <mask id="mask-2" x="236.35" y="0.4" width="378.81" height="802.73" maskUnits="userSpaceOnUse">
      <g class="cls-1">
        <path class="cls-2" d="M236.4,772.4a.19.19,0,0,0,0-.15c0,.05,0,.1.1.15Zm7.92,13.23c.05,0,.05,0,.1,0,.1.15.2.25.3.4C244.57,785.94,244.47,785.79,244.32,785.64Zm19.2,14.18.55.15c.05.05.1.05.15.1A2.93,2.93,0,0,0,263.52,799.82ZM587,803.13a0,0,0,0,0,.05-.05,1.71,1.71,0,0,0,.5-.05C587.39,803.08,587.24,803.08,587,803.13ZM613.76.65a.89.89,0,0,0-.2-.25,5,5,0,0,0,.55.5A.9.9,0,0,0,613.76.65Zm.65,789.75c.15-.15.25-.3.4-.45a1.9,1.9,0,0,1,.35-.3C614.91,789.9,614.66,790.2,614.41,790.4Z"/>
      </g>
    </mask>
    <linearGradient id="linear-gradient-8" x1="425.75" y1="803.13" x2="425.75" y2="0.4" gradientUnits="userSpaceOnUse">
      <stop offset="0" stop-color="#fff"/>
      <stop offset="0.85" stop-color="#fff"/>
      <stop offset="1" stop-color="#fff"/>
    </linearGradient>
  </defs>
  <title>ze</title>
  <g>
    <g>
      <g>
        <g>
          <g>
            <path class="cls-3" d="M570.43,12.67h-299a55.87,55.87,0,0,0-55.87,55.87V785.62a55.87,55.87,0,0,0,55.87,55.87h299a55.87,55.87,0,0,0,55.87-55.87V68.54A55.87,55.87,0,0,0,570.43,12.67Zm54.32,767.77a54.15,54.15,0,0,1-2.62,16.69c-.12.4-.26.81-.4,1.2s-.28.8-.44,1.19-.22.6-.34.89q-.53,1.32-1.12,2.61c-.18.38-.35.77-.54,1.14-.26.53-.52,1-.8,1.57-.18.35-.36.69-.56,1s-.4.73-.62,1.09c-.58,1-1.2,2-1.86,2.95-.21.3-.41.61-.63.91s-.48.67-.74,1-.49.66-.75,1-.51.65-.78,1-.53.64-.81,1c-.53.63-1.09,1.25-1.66,1.86-.87.93-1.77,1.84-2.72,2.72-.28.26-.56.52-.85.77-.65.58-1.32,1.14-2,1.7l-.89.7c-1,.77-2,1.49-3,2.19-.34.24-.69.47-1,.68-.71.46-1.42.88-2.15,1.3-.36.22-.72.41-1.08.6-1.17.64-2.36,1.24-3.59,1.78-.32.16-.64.29-1,.43s-.77.33-1.16.49l-1.18.46c-.88.33-1.77.64-2.68.92l-1,.29c-1.18.35-2.4.66-3.62.93l-1.29.27q-.67.14-1.37.25-1.26.22-2.55.37h0l-.5.05a2.05,2.05,0,0,1-.35,0h-.15c.77-.08,1.52-.19,2.28-.31l1.13-.2c.37-.06.75-.15,1.11-.22,1.12-.23,2.22-.51,3.31-.81.36-.09.73-.21,1.08-.32.72-.22,1.42-.46,2.13-.71q1.59-.58,3.11-1.24c.34-.13.68-.29,1-.46l1-.48c.66-.33,1.32-.67,2-1s1.28-.73,1.91-1.11,1.13-.72,1.69-1.08a1,1,0,0,0,.17-.11c.91-.62,1.8-1.27,2.68-1.94.29-.22.58-.45.86-.68.81-.65,1.6-1.34,2.36-2a49.21,49.21,0,0,0,5.24-5.66c.23-.28.46-.58.67-.87a49.25,49.25,0,0,0,5.81-9.89c.25-.56.49-1.14.7-1.71a48.2,48.2,0,0,0,2.53-8.72c.11-.59.22-1.19.31-1.79a50.21,50.21,0,0,0,.56-7.44V68.54a49.22,49.22,0,0,0-43.93-48.87l-1.32-.11L573,19.47h0c-.84,0-1.67-.06-2.52-.06h-299q-1.28,0-2.52.06h0a49.21,49.21,0,0,0-46.59,49.07V785.62a49.21,49.21,0,0,0,43.61,48.83l-1-.09h0q-1.29-.16-2.55-.37a54.06,54.06,0,0,1-14.54-4.66l-1-.47c-.81-.43-1.61-.85-2.4-1.31l-1.07-.63a53.16,53.16,0,0,1-5.14-3.54l-.88-.69c-.87-.71-1.72-1.43-2.54-2.18-.27-.25-.54-.5-.8-.76s-.61-.58-.91-.88l-.88-.9c-.2-.2-.38-.39-.57-.6l-.7-.78a55,55,0,0,1-3.89-4.88c-.22-.3-.42-.61-.63-.91-.65-1-1.27-1.93-1.85-2.92-.22-.35-.43-.72-.62-1.08a54,54,0,0,1-3.81-8.46c-.15-.4-.28-.8-.4-1.2a54.62,54.62,0,0,1-1.61-6.22c-.08-.42-.17-.85-.24-1.28a54.76,54.76,0,0,1-.78-9.19V68.54c0-.54,0-1.07,0-1.6s0-.8,0-1.19c0-.87.1-1.73.2-2.59,0-.45.09-.89.15-1.33l.09-.7c0-.28.07-.56.12-.85q.09-.67.22-1.34.2-1.17.47-2.3c.08-.38.18-.76.27-1.13.27-1.13.58-2.23.93-3.33l.34-1c.15-.43.29-.85.45-1.27s.26-.69.39-1,.22-.57.34-.85.28-.68.43-1,.22-.51.34-.76.33-.74.52-1.11c.3-.64.62-1.29,1-1.92q.25-.48.53-1c.2-.37.42-.75.63-1.11a54.53,54.53,0,0,1,5.11-7.27l.82-1c.31-.35.62-.72,1-1.07.54-.58,1.08-1.15,1.64-1.7s1.21-1.18,1.84-1.75,1.27-1.12,1.92-1.66l1-.8c.66-.52,1.34-1,2-1.52s1.38-1,2.09-1.43,1.43-.9,2.17-1.33c.36-.22.74-.43,1.11-.63l1.12-.6,1.14-.58,1.16-.56c.77-.35,1.56-.7,2.35-1l1.14-.46.1,0,1.16-.43,1.15-.39c.44-.13.87-.28,1.32-.4l1.24-.35,1.27-.33,1.28-.3c.86-.2,1.72-.36,2.59-.51l1.3-.21c.93-.13,1.88-.25,2.82-.33.75-.07,1.5-.12,2.26-.17l1.39-.05,1.4,0h299l1.4,0,1.16,0c.88,0,1.75.1,2.62.19h0l1.32.15,1.32.18,1.31.21,1.29.24s0,0,0,0l1.28.27,1.16.26.25.06,1.09.29c.51.13,1,.28,1.51.44l1,.32c.76.25,1.5.51,2.25.79.51.18,1,.37,1.49.58l1.08.46c.39.17.78.34,1.17.53l1.15.55a52.62,52.62,0,0,1,7.78,4.68c.3.21.6.43.89.65,1.08.81,2.12,1.65,3.12,2.53q.67.58,1.31,1.18a52.68,52.68,0,0,1,4.9,5.21c.28.33.54.65.8,1,.55.69,1.07,1.39,1.57,2.09.26.35.51.72.75,1.08.42.61.83,1.24,1.22,1.88l.58,1c.35.61.71,1.22,1,1.86.17.3.33.6.48.91.55,1,1,2.11,1.52,3.19.11.28.24.56.35.85.45,1.08.86,2.18,1.23,3.29.15.42.28.82.4,1.23A54.28,54.28,0,0,1,624,59.7q.06.39.12.81c.06.44.12.87.18,1.31s.1.88.15,1.33.08.89.12,1.34c.05.82.09,1.64.11,2.47q0,.79,0,1.59Z"/>
            <g>
              <path class="cls-3" d="M266.25,834.49l-1.31-.13h0q-1.29-.16-2.55-.37a54.06,54.06,0,0,1-14.54-4.66l-1-.47c-.81-.43-1.61-.85-2.4-1.31l-1.07-.63a53.16,53.16,0,0,1-5.14-3.54l-.88-.69c-.87-.71-1.72-1.43-2.54-2.18-.27-.25-.54-.5-.8-.76s-.61-.58-.91-.88l-.88-.9c-.2-.2-.38-.39-.57-.6l-.7-.78a55,55,0,0,1-3.89-4.88c-.22-.3-.42-.61-.63-.91-.65-1-1.27-1.93-1.85-2.92-.22-.35-.43-.72-.62-1.08a54,54,0,0,1-3.81-8.46c-.15-.4-.28-.8-.4-1.2a54.62,54.62,0,0,1-1.61-6.22c-.08-.42-.17-.85-.24-1.28a54.76,54.76,0,0,1-.78-9.19V73.72a54.39,54.39,0,0,1,51.78-54.25,49.21,49.21,0,0,0-46.59,49.07V785.62A49.21,49.21,0,0,0,266.25,834.49Z"/>
              <path class="cls-3" d="M624.75,73.72V780.44a54.15,54.15,0,0,1-2.62,16.69c-.12.4-.26.81-.4,1.2s-.28.8-.44,1.19-.22.6-.34.89q-.53,1.32-1.12,2.61c-.18.38-.35.77-.54,1.14-.26.53-.52,1-.8,1.57-.18.35-.36.69-.56,1s-.4.73-.62,1.09c-.58,1-1.2,2-1.86,2.95-.21.3-.41.61-.63.91s-.49.67-.74,1-.5.67-.75,1l-.78,1q-.39.48-.81,1c-.54.63-1.09,1.25-1.66,1.86-.87.93-1.77,1.84-2.72,2.72l-.85.77c-.65.58-1.32,1.14-2,1.7l-.89.7c-1,.77-2,1.49-3,2.19l-1,.68c-.71.46-1.42.88-2.15,1.3-.35.21-.72.41-1.08.6-1.17.64-2.36,1.24-3.59,1.78-.32.16-.64.29-1,.43s-.77.33-1.16.49l-1.18.46c-.88.33-1.77.64-2.68.92l-1,.29c-1.18.35-2.4.66-3.62.93l-1.29.27q-.67.14-1.37.25-1.28.22-2.55.37h0l-1.31.13a49.22,49.22,0,0,0,43.93-48.87V68.54a49.21,49.21,0,0,0-45.25-49A54.38,54.38,0,0,1,624.75,73.72Z"/>
              <path class="cls-3" d="M624.75,780.44v5.19a54.37,54.37,0,0,1-54.32,54.32h-299a54.38,54.38,0,0,1-54.33-54.32v-5.19a54.76,54.76,0,0,0,.78,9.19c.07.43.16.85.24,1.28a54.62,54.62,0,0,0,1.61,6.22c.12.4.26.8.4,1.2a54,54,0,0,0,3.81,8.46c.2.36.4.73.62,1.08.58,1,1.19,2,1.85,2.92.21.3.41.61.63.91a55,55,0,0,0,3.89,4.88l.7.78c.19.21.37.4.57.6l.88.9c.3.3.6.59.91.88s.53.51.8.76c.82.75,1.67,1.47,2.54,2.18l.88.69a53.16,53.16,0,0,0,5.14,3.54l1.07.63c.79.46,1.59.88,2.4,1.31l1,.47A54.06,54.06,0,0,0,262.36,834q1.26.22,2.55.37h0c.87.1,1.74.19,2.62.25l1.35.08q1.26.06,2.55.06h299c.85,0,1.69,0,2.53-.06l1.35-.08c.72-.05,1.42-.11,2.13-.2l.5-.05h0q1.29-.16,2.55-.37.7-.11,1.37-.25l1.29-.27c1.22-.27,2.44-.58,3.62-.93l1-.29c.9-.28,1.79-.59,2.68-.92l1.18-.46c.39-.16.78-.31,1.16-.49s.64-.27,1-.43c1.22-.54,2.42-1.14,3.59-1.78.36-.19.72-.38,1.08-.6.73-.42,1.44-.84,2.15-1.3.35-.22.71-.45,1-.68,1-.7,2.05-1.42,3-2.19l.89-.7c.67-.56,1.34-1.12,2-1.7.29-.25.57-.51.85-.77.94-.88,1.85-1.78,2.72-2.72.57-.6,1.13-1.22,1.66-1.86q.42-.48.81-1c.27-.32.53-.64.78-1s.51-.66.75-1,.5-.66.74-1,.43-.61.63-.91c.65-1,1.28-1.95,1.86-2.95q.33-.54.62-1.09c.2-.34.38-.68.56-1,.28-.52.54-1,.8-1.57.19-.37.37-.76.54-1.14q.59-1.29,1.12-2.61c.12-.29.24-.59.34-.89s.3-.79.44-1.19.28-.8.4-1.2A54.15,54.15,0,0,0,624.75,780.44Z"/>
            </g>
            <path class="cls-3" d="M624.75,68.54v5.19a54.37,54.37,0,0,0-49.12-54.06l-1.32-.11L573,19.47h0c-.84,0-1.67-.06-2.52-.06h-299q-1.28,0-2.52.06h0a54.39,54.39,0,0,0-51.78,54.25V68.54c0-.54,0-1.07,0-1.6s0-.8,0-1.19c0-.87.1-1.73.2-2.59,0-.45.09-.89.15-1.33l.09-.7c0-.28.07-.56.12-.85q.09-.67.22-1.34.2-1.17.47-2.3c.08-.38.18-.76.27-1.13.27-1.13.58-2.23.93-3.33l.34-1c.15-.43.29-.85.45-1.27s.26-.69.39-1,.22-.57.34-.85.28-.68.43-1,.22-.51.34-.76.33-.74.52-1.11c.3-.64.62-1.29,1-1.92q.25-.48.53-1c.2-.37.42-.75.63-1.11a54.53,54.53,0,0,1,5.11-7.27l.82-1c.31-.35.62-.72,1-1.07.54-.58,1.08-1.15,1.64-1.7s1.21-1.18,1.84-1.75,1.27-1.12,1.92-1.66l1-.8c.66-.52,1.34-1,2-1.52s1.38-1,2.09-1.43,1.43-.9,2.17-1.33c.36-.22.74-.43,1.11-.63l1.12-.6,1.14-.58,1.16-.56c.77-.35,1.56-.7,2.35-1l1.14-.46.1,0,1.16-.43,1.15-.39c.44-.13.87-.28,1.32-.4l1.24-.35,1.27-.33,1.28-.3c.86-.2,1.72-.36,2.59-.51l1.3-.21c.93-.13,1.88-.25,2.82-.33.75-.07,1.5-.12,2.26-.17l1.39-.05,1.4,0h299l1.4,0,1.16,0c.88,0,1.75.1,2.62.19h0l1.32.15,1.32.18,1.31.21,1.29.24s0,0,0,0l1.28.27,1.16.26.25.06,1.09.29c.51.13,1,.28,1.51.44l1,.32c.76.25,1.5.51,2.25.79.51.18,1,.37,1.49.58l1.08.46c.39.17.78.34,1.17.53l1.15.55a52.62,52.62,0,0,1,7.78,4.68c.3.21.6.43.89.65,1.08.81,2.12,1.65,3.12,2.53q.67.58,1.31,1.18a52.68,52.68,0,0,1,4.9,5.21c.28.33.54.65.8,1,.55.69,1.07,1.39,1.57,2.09.26.35.51.72.75,1.08.42.61.83,1.24,1.22,1.88l.58,1c.35.61.71,1.22,1,1.86.17.3.33.6.48.91.55,1,1,2.11,1.52,3.19.11.28.24.56.35.85.45,1.08.86,2.18,1.23,3.29.15.42.28.82.4,1.23A54.28,54.28,0,0,1,624,59.7q.06.39.12.81c.06.44.12.87.18,1.31s.1.88.15,1.33.08.89.12,1.34c.05.82.09,1.64.11,2.47Q624.75,67.74,624.75,68.54Z"/>
          </g>
          <path class="cls-3" d="M573,19.47h0q-1.24-.06-2.52-.06h-299q-1.28,0-2.52.06h0a49.21,49.21,0,0,0-46.59,49.07V785.62a49.2,49.2,0,0,0,45.24,49l1.35.08q1.26.06,2.55.06h299c.85,0,1.69,0,2.53-.06l1.35-.08a49.21,49.21,0,0,0,45.25-49V68.54A49.2,49.2,0,0,0,573,19.47Zm42.45,766.15A45.2,45.2,0,0,1,574,830.47c-.41,0-.84.06-1.27.07-.77,0-1.55.06-2.32.06h-299c-.79,0-1.58,0-2.35-.06-.41,0-.84,0-1.22-.07a45.19,45.19,0,0,1-41.41-44.85V68.54A45,45,0,0,1,269,23.62h.12c.76,0,1.53-.05,2.31-.05h299c.78,0,1.56,0,2.31.05h.07a45,45,0,0,1,42.6,44.92Z"/>
          <path class="cls-4" d="M615.4,68.83V785.91A44.48,44.48,0,0,1,609.52,808c-.34.6-.7,1.19-1.07,1.77q-.84,1.31-1.74,2.55a46.53,46.53,0,0,1-5.79,6.49,46.74,46.74,0,0,0,6.18-23.25v-8.27c0-.49,0-1,0-1.48V68.76c0-.51,0-1,0-1.51V59.15a47,47,0,0,0-6.19-23.41A44.9,44.9,0,0,1,615.4,68.83Z"/>
          <g>
            <path class="cls-3" d="M572.6,27.76h-.19c-.65,0-1.31,0-2,0h-299c-.68,0-1.36,0-2,0l-.2,0h-.1a40.83,40.83,0,0,0-38.52,40.77V785.62a41,41,0,0,0,37.6,40.72l1,.06h.12c.7,0,1.42.06,2.13.06h299c.7,0,1.4,0,2.09-.06h.13c.35,0,.7,0,1-.07a41,41,0,0,0,37.57-40.71V68.54A40.81,40.81,0,0,0,572.6,27.76Zm27.78,757.87a29.88,29.88,0,0,1-6.21,18.2l-.64.8c-.65.8-1.36,1.56-2.08,2.29s-1.32,1.25-2,1.83h0a31.27,31.27,0,0,1-2.77,2,28.49,28.49,0,0,1-3,1.71h0c-.51.26-1,.5-1.57.73h0c-.52.23-1.07.44-1.62.63a29.08,29.08,0,0,1-3.38,1,30.92,30.92,0,0,1-4.25.64l-.39,0h-.46l-.37,0H270.69l-.79,0h-.42l-.4,0a30.08,30.08,0,0,1-27.57-29.85V68.54a30,30,0,0,1,28-29.88h.26l.4,0c.49,0,.92,0,1.32,0h299c.4,0,.84,0,1.32,0H572l.3,0c.3,0,.58,0,.87.07a2.2,2.2,0,0,1,.39,0c.26,0,.52,0,.79.09a8.31,8.31,0,0,1,.93.13h0c.45.06.89.14,1.33.24l.25.06c.37.07.73.17,1.08.26q.78.21,1.57.46c.42.12.83.26,1.24.42s.88.33,1.31.52a24.71,24.71,0,0,1,2.52,1.21,25,25,0,0,1,2.18,1.3l.48.32.86.61c.38.26.74.55,1.1.84.71.58,1.4,1.19,2.06,1.83a10.73,10.73,0,0,1,1,1c.31.33.62.68.92,1a29.1,29.1,0,0,1,3.19,4.51c.46.8.88,1.63,1.27,2.48s.74,1.7,1,2.59c.16.44.3.88.43,1.33a27.8,27.8,0,0,1,.71,3c.08.4.15.8.2,1.2a29.22,29.22,0,0,1,.32,4.36Z"/>
            <path class="cls-3" d="M321.46,52.4c-.11-.2-.19-.4-.29-.61s-.06-.15-.08-.23C321.21,51.86,321.33,52.13,321.46,52.4Z"/>
            <path class="cls-3" d="M520.8,51.57c0,.07-.06.14-.08.23s-.18.4-.29.61C520.56,52.13,520.68,51.86,520.8,51.57Z"/>
          </g>
          <path class="cls-3" d="M527.28,38.6a5,5,0,0,0-4.71,4.47c0,.23,0,.44,0,.65a20,20,0,0,1-.29,2.68c0,.31-.1.61-.17.9h0c-.07.37-.16.73-.25,1.08s-.17.64-.26,1l-.07.23c0,.07,0,.15-.08.24a.9.9,0,0,1-.06.19l-.11.32c0,.12-.08.24-.13.36-.09.3-.21.58-.33.87s-.24.56-.37.83a.35.35,0,0,1,0,.12l0,.06c-.11.24-.23.46-.35.69s-.2.4-.31.6a1.07,1.07,0,0,1-.11.19,2.34,2.34,0,0,1-.17.3,4.37,4.37,0,0,1-.24.4l-.06.11L519,55l-.17.26a2.59,2.59,0,0,1-.19.3c0,.08-.11.17-.17.25a.89.89,0,0,1-.1.13l-.2.3a1.35,1.35,0,0,1-.15.2,1.74,1.74,0,0,1-.21.3l0,.07a.14.14,0,0,1-.06.06c-.07.11-.15.21-.24.32a.46.46,0,0,1-.1.12,3.82,3.82,0,0,1-.27.35h0l-.36.42a3.18,3.18,0,0,1-.37.43,0,0,0,0,1,0,0h0a2.53,2.53,0,0,1-.24.26l-.27.29a2.77,2.77,0,0,1-.26.26,6.17,6.17,0,0,1-.49.48,3.65,3.65,0,0,1-.38.36l-.24.21-.58.49c-.18.16-.37.3-.56.45l-.34.26c-.13.11-.26.2-.4.3a0,0,0,0,1,0,0,4.75,4.75,0,0,1-.4.27.84.84,0,0,1-.18.13c-.23.14-.45.3-.68.43a4.38,4.38,0,0,1-.54.33,5.56,5.56,0,0,1-.69.38,3,3,0,0,1-.26.15l-.06,0c-.17.1-.33.18-.51.26a4,4,0,0,1-.46.23,4.29,4.29,0,0,1-.42.19l-.23.1-.19.08h0c-.37.16-.73.3-1.09.43l-1,.34c-.38.12-.75.23-1.13.32-.76.19-1.55.36-2.33.48l-1,.13-.2,0-.84.06-1,0H342.52l-1,0-.84-.06-.2,0-1-.13c-.79-.12-1.57-.29-2.33-.48-.38-.09-.75-.2-1.13-.32l-1-.34c-.37-.13-.73-.27-1.09-.43h0l-.19-.08-.23-.1a4.39,4.39,0,0,1-.42-.19,4.1,4.1,0,0,1-.46-.23l-.51-.26-.06,0c-.08,0-.18-.1-.26-.15a5.55,5.55,0,0,1-.69-.38,4.35,4.35,0,0,1-.54-.33c-.23-.13-.45-.29-.68-.43a.84.84,0,0,1-.18-.13,4.75,4.75,0,0,1-.4-.27,0,0,0,0,1,0,0c-.14-.1-.27-.19-.4-.3l-.35-.26c-.19-.15-.38-.3-.56-.45l-.58-.49-.24-.21a3.69,3.69,0,0,1-.38-.36,6.31,6.31,0,0,1-.49-.48,2.77,2.77,0,0,1-.26-.26l-.27-.29a2.44,2.44,0,0,1-.24-.26h0a1.71,1.71,0,0,1-.19-.23l-.55-.64h0a3.89,3.89,0,0,1-.27-.35.47.47,0,0,1-.1-.12c-.08-.11-.17-.21-.24-.32a.14.14,0,0,1-.06-.06l0-.07a1.69,1.69,0,0,1-.21-.3,1.3,1.3,0,0,1-.15-.2l-.2-.3a1.16,1.16,0,0,1-.1-.13,2.94,2.94,0,0,1-.17-.25,2.53,2.53,0,0,1-.19-.3l-.17-.26-.1-.15-.06-.11a4.56,4.56,0,0,1-.24-.4,2.39,2.39,0,0,1-.17-.3l-.11-.19c-.11-.19-.21-.39-.31-.6s-.24-.45-.35-.69l0-.06a.36.36,0,0,1,0-.12c-.13-.27-.25-.55-.37-.83s-.24-.57-.33-.87c0-.12-.08-.24-.13-.36l-.11-.32a.92.92,0,0,1-.06-.19,2.06,2.06,0,0,1-.08-.24l-.07-.23c-.1-.32-.19-.64-.26-1s-.18-.71-.25-1.08h0c-.07-.3-.12-.6-.17-.9a20,20,0,0,1-.29-2.68c0-.21,0-.43,0-.65a5,5,0,0,0-4.71-4.47Z"/>
          <path class="cls-3" d="M341.55,66.28l1,0H342a4.6,4.6,0,0,1-.57,0l-.63,0h-.07Z"/>
          <path class="cls-3" d="M501.19,66.22h-.07l-.63,0a4.61,4.61,0,0,1-.57,0h-.55l1,0Z"/>
          <path class="cls-3" d="M320.76,50.7l0,0-.11-.32C320.67,50.46,320.71,50.58,320.76,50.7Z"/>
          <path class="cls-3" d="M321.46,52.4c-.11-.2-.19-.4-.29-.61s-.06-.15-.08-.23C321.21,51.86,321.33,52.13,321.46,52.4Z"/>
          <path class="cls-3" d="M324.39,57.21a4.65,4.65,0,0,1-.3-.38.14.14,0,0,0,.06.06C324.22,57,324.3,57.1,324.39,57.21Z"/>
          <path class="cls-3" d="M325.32,58.32a3.78,3.78,0,0,1-.36-.4c-.07-.08-.14-.15-.2-.24h0Z"/>
          <path class="cls-3" d="M325.76,58.8a2.49,2.49,0,0,1-.25-.26h0A2.44,2.44,0,0,0,325.76,58.8Z"/>
          <path class="cls-3" d="M328.54,61.34a6.48,6.48,0,0,1-.56-.44,3.54,3.54,0,0,1-.33-.29c-.1-.07-.17-.14-.25-.21l.58.49C328.16,61,328.35,61.19,328.54,61.34Z"/>
          <path class="cls-3" d="M328.89,61.6c.13.11.26.2.4.3l-.12-.07Z"/>
          <path class="cls-3" d="M330.56,62.74a4.61,4.61,0,0,1-.4-.24h0l-.25-.18C330.11,62.46,330.34,62.61,330.56,62.74Z"/>
          <path class="cls-3" d="M335,64.92c-.31-.11-.61-.21-.92-.35l-.18-.08C334.3,64.65,334.66,64.79,335,64.92Z"/>
          <path class="cls-3" d="M336,65.27c.38.12.75.23,1.13.32l-.76-.2-.37-.11-.5-.17c-.18-.06-.36-.12-.52-.19Z"/>
          <path class="cls-3" d="M339.51,66.06l1,.13c-.3,0-.59-.06-.88-.11h-.11l-.39-.07q-.39-.05-.79-.14l-1-.23-.17,0C337.94,65.78,338.73,65.94,339.51,66.06Z"/>
          <path class="cls-3" d="M341.55,66.28h-.37l-.4,0h-.07Z"/>
          <path class="cls-3" d="M499.06,66.34h0Z"/>
          <path class="cls-3" d="M500.34,66.28l.84-.06h-.07l-.4,0h-.37Z"/>
          <path class="cls-3" d="M502.38,66.06c.79-.12,1.57-.29,2.33-.48l-.17,0-1,.23q-.39.09-.79.14l-.39.07h-.11c-.29,0-.58.08-.88.11Z"/>
          <path class="cls-3" d="M506.86,64.92c-.17.07-.34.13-.52.19l-.5.17-.37.11-.76.2c.38-.09.75-.2,1.13-.32Z"/>
          <path class="cls-3" d="M506.86,64.92c.37-.13.73-.27,1.09-.43l-.18.08C507.47,64.71,507.17,64.81,506.86,64.92Z"/>
          <path class="cls-3" d="M511.33,62.74c.23-.13.45-.29.68-.43l-.25.18h0A4.62,4.62,0,0,1,511.33,62.74Z"/>
          <path class="cls-3" d="M513,61.6l-.29.23-.12.07C512.74,61.8,512.87,61.71,513,61.6Z"/>
          <path class="cls-3" d="M514.49,60.4c-.08.07-.16.14-.25.21a3.44,3.44,0,0,1-.33.29,6.41,6.41,0,0,1-.56.44c.19-.15.38-.3.56-.45Z"/>
          <path class="cls-3" d="M516.38,58.54a2.54,2.54,0,0,1-.25.26,2.53,2.53,0,0,0,.24-.26Z"/>
          <path class="cls-3" d="M517.13,57.67c-.06.08-.13.15-.2.24a1.18,1.18,0,0,1-.17.18l.36-.42Z"/>
          <path class="cls-3" d="M517.8,56.83a4.74,4.74,0,0,1-.3.38c.08-.11.17-.21.24-.32A.14.14,0,0,0,517.8,56.83Z"/>
          <path class="cls-3" d="M520.8,51.57c0,.07-.06.14-.08.23s-.18.4-.29.61C520.56,52.13,520.68,51.86,520.8,51.57Z"/>
          <path class="cls-3" d="M521.26,50.34l-.11.32,0,0C521.18,50.58,521.22,50.46,521.26,50.34Z"/>
          <g>
            <path class="cls-5" d="M607.11,787.32v8.27a46.74,46.74,0,0,1-6.18,23.25A44.72,44.72,0,0,1,574,830.69c-.42,0-.84.06-1.27.07-.77,0-1.55.06-2.32.06h-299c-.79,0-1.58,0-2.35-.06-.42,0-.84,0-1.22-.07-.57,0-1.14-.1-1.71-.18A44.65,44.65,0,0,1,241,818.85a46.74,46.74,0,0,1-6.23-23.34v-9.68a36.73,36.73,0,0,0,12.91,27.87,36.34,36.34,0,0,0,20.86,8.7c.26,0,.52.05.78.05h.23c.63,0,1.28.05,1.92.05h299c.62,0,1.25,0,1.88-.05h.24c.29,0,.57,0,.85-.05A36.83,36.83,0,0,0,607.11,787.32Z"/>
            <path class="cls-6" d="M615.4,68.83l0-.07a45,45,0,0,0-42.6-44.92h-.07c-.76,0-1.53-.05-2.31-.05h-299c-.78,0-1.56,0-2.31.05h-.12c-1,.05-1.93.13-2.88.25A44.81,44.81,0,0,0,241,35.67a47,47,0,0,0-6.19,23.41v9.68a36.68,36.68,0,0,1,34.5-36.62h.2l.27,0,1.73,0h299l1.57,0h0l.37,0a36.66,36.66,0,0,1,34.7,35.12V59.15a47,47,0,0,0-6.19-23.41A44.9,44.9,0,0,1,615.4,68.83Z"/>
            <path class="cls-7" d="M241,818.64a45,45,0,0,1-14.53-33V68.54A44.9,44.9,0,0,1,241,35.45a47,47,0,0,0-6.19,23.41V795.3A46.74,46.74,0,0,0,241,818.64Z"/>
            <path class="cls-8" d="M615.4,68.83V785.91A44.48,44.48,0,0,1,609.52,808c-.34.6-.7,1.19-1.07,1.77q-.81,1.31-1.74,2.55a44.53,44.53,0,0,1-5.84,6.58l.05-.08a46.74,46.74,0,0,0,6.18-23.25V59.15a47,47,0,0,0-6.19-23.41A44.9,44.9,0,0,1,615.4,68.83Z"/>
          </g>
          <rect class="cls-9" x="395.84" y="41.82" width="47.71" height="5.01" rx="0.76" ry="0.76"/>
        </g>
        <path class="cls-10" d="M600.37,68.54V785.63a29.88,29.88,0,0,1-6.21,18.2l-.64.8c-.67.8-1.36,1.56-2.08,2.29s-1.32,1.25-2,1.83h0a31.27,31.27,0,0,1-2.77,2,31.76,31.76,0,0,1-3,1.71h0c-.51.25-1,.49-1.57.73h0c-.52.23-1.07.43-1.62.63a31.61,31.61,0,0,1-3.38,1,30.92,30.92,0,0,1-4.25.64l-.39,0H270.69l-.79,0h-.42l-.4,0a30.08,30.08,0,0,1-27.57-29.85V68.54a30,30,0,0,1,28-29.88l45.13-.06a5,5,0,0,1,4.71,4.47c0,.17,0,.33,0,.5v.07a.2.2,0,0,0,0,.08,20,20,0,0,0,.29,2.68c0,.31.09.61.17.9h0c.07.37.15.73.25,1.08s.17.64.26,1l.07.23a2.06,2.06,0,0,0,.08.24.92.92,0,0,0,.06.19l.11.32.11.32,0,0c.1.3.21.58.33.87s.24.56.37.83a.36.36,0,0,0,0,.12l0,.06c.11.24.23.46.35.69s.2.4.31.6l.11.19a2.39,2.39,0,0,0,.17.3,4.56,4.56,0,0,0,.24.4l.06.11.1.15.17.26a2.53,2.53,0,0,0,.19.3,2.94,2.94,0,0,0,.17.25,1.16,1.16,0,0,0,.1.13l.2.3a1.3,1.3,0,0,0,.15.2,1.69,1.69,0,0,0,.21.3l0,.07a.14.14,0,0,0,.06.06c.07.11.16.21.24.32a.47.47,0,0,0,.1.12,3.89,3.89,0,0,0,.27.35h0a1.83,1.83,0,0,0,.19.24,3.78,3.78,0,0,0,.36.4,1.71,1.71,0,0,0,.19.23h0a2.44,2.44,0,0,0,.24.26l.27.29a2.77,2.77,0,0,0,.26.26,6.31,6.31,0,0,0,.49.48,3.69,3.69,0,0,0,.38.36l.24.21c.08.07.15.14.25.21a3.76,3.76,0,0,0,.33.27h0a6.48,6.48,0,0,0,.56.44l.35.26.29.23.12.07a0,0,0,0,0,0,0,4.75,4.75,0,0,0,.4.27.84.84,0,0,0,.18.13l.25.18h0a4.61,4.61,0,0,0,.4.24,4.35,4.35,0,0,0,.54.33,5.55,5.55,0,0,0,.69.38c.08.06.18.11.26.15l.06,0,.51.26a4.1,4.1,0,0,0,.46.23,4.39,4.39,0,0,0,.42.19,1.32,1.32,0,0,0,.23.1l.19.08.19.08c.31.13.61.24.92.35s.35.13.52.19l.5.15h0l.37.11.76.2.17,0,1,.23q.39.09.79.14l.39.06h.11c.29,0,.58.08.88.11l.2,0h.07l.4,0h.23a4.6,4.6,0,0,0,.57,0,6.88,6.88,0,0,0,.86,0H499.06a6.88,6.88,0,0,0,.86,0,4.61,4.61,0,0,0,.57,0h.23l.4,0h.07l.2,0c.3,0,.6-.06.88-.11h.11l.39-.06q.39-.05.79-.14l1-.23.17,0,.76-.2.37-.11h0l.5-.15c.18-.06.36-.12.52-.19s.61-.21.92-.35l.19-.08.19-.08a1.32,1.32,0,0,0,.23-.1,4.29,4.29,0,0,0,.42-.19,4,4,0,0,0,.46-.23c.18-.08.35-.17.51-.26l.06,0a3,3,0,0,0,.26-.15,5.56,5.56,0,0,0,.69-.38,4.38,4.38,0,0,0,.54-.33,4.62,4.62,0,0,0,.4-.24h0l.25-.18a.84.84,0,0,0,.18-.13,4.75,4.75,0,0,0,.4-.27,0,0,0,0,0,0,0l.12-.07.29-.23.34-.26a6.41,6.41,0,0,0,.56-.44h0a3.65,3.65,0,0,0,.33-.27c.1-.07.17-.14.25-.21l.24-.21a3.65,3.65,0,0,0,.38-.36,6.17,6.17,0,0,0,.49-.48,2.77,2.77,0,0,0,.26-.26l.27-.29a2.53,2.53,0,0,0,.24-.26h0a0,0,0,0,0,0,0,3.18,3.18,0,0,0,.37-.43,1.18,1.18,0,0,0,.17-.18,1.83,1.83,0,0,0,.19-.24h0a3.82,3.82,0,0,0,.27-.35.46.46,0,0,0,.1-.12c.08-.11.17-.21.24-.32a.14.14,0,0,0,.06-.06l0-.07a1.74,1.74,0,0,0,.21-.3,1.35,1.35,0,0,0,.15-.2l.2-.3a.89.89,0,0,0,.1-.13c.06-.08.12-.17.17-.25a2.59,2.59,0,0,0,.19-.3L519,55l.1-.15.06-.11a4.37,4.37,0,0,0,.24-.4,2.34,2.34,0,0,0,.17-.3,1.07,1.07,0,0,0,.11-.19c.11-.19.21-.39.31-.6s.24-.45.35-.69l0-.06a.35.35,0,0,0,0-.12c.13-.27.25-.55.37-.83s.24-.57.33-.87l0,0,.11-.32.11-.32a.9.9,0,0,0,.06-.19c0-.08.06-.17.08-.24l.07-.23c.1-.32.19-.64.26-1s.18-.71.25-1.08h0c.07-.3.12-.6.17-.9a20,20,0,0,0,.29-2.68.2.2,0,0,0,0-.08v-.07c0-.17,0-.33,0-.5a5,5,0,0,1,4.71-4.47h43.14c.4,0,.84,0,1.32,0h.14l.26,0h.26q.39,0,.79.07a2.2,2.2,0,0,1,.39,0c.26,0,.52,0,.79.09s.62.07.93.13h0l1.33.24.25.06,1.08.26q.78.21,1.57.46l1.24.42,1.31.52c.86.37,1.7.77,2.52,1.21s1.48.83,2.18,1.3l.48.32.86.61c.37.27.74.56,1.1.84.71.58,1.4,1.19,2.06,1.83.33.32.65.65,1,1s.62.68.92,1a31.45,31.45,0,0,1,3.19,4.51c.46.8.88,1.63,1.27,2.48s.74,1.7,1,2.59c.16.44.3.88.43,1.33a27.8,27.8,0,0,1,.71,3c.08.39.14.8.2,1.2A29.22,29.22,0,0,1,600.37,68.54Z"/>
      </g>
      <g class="cls-11">
        <path class="cls-12" d="M236.4,772.4a.19.19,0,0,0,0-.15c0,.05,0,.1.1.15Zm7.92,13.23c.05,0,.05,0,.1,0,.1.15.2.25.3.4C244.57,785.94,244.47,785.79,244.32,785.64Zm19.2,14.18.55.15c.05.05.1.05.15.1A2.93,2.93,0,0,0,263.52,799.82ZM587,803.13a0,0,0,0,0,.05-.05,1.71,1.71,0,0,0,.5-.05C587.39,803.08,587.24,803.08,587,803.13ZM613.76.65a.89.89,0,0,0-.2-.25,5,5,0,0,0,.55.5A.9.9,0,0,0,613.76.65Zm.65,789.75c.15-.15.25-.3.4-.45a1.9,1.9,0,0,1,.35-.3C614.91,789.9,614.66,790.2,614.41,790.4Z"/>
      </g>
    </g>
    <path class="cls-13" d="M515.07,355.93a47.52,47.52,0,0,0-1.89-8.52h0a5.7,5.7,0,0,0-.53-1.88h0a59.62,59.62,0,0,0-3.75-10.35,48.57,48.57,0,0,0-4.22-8.53,52.87,52.87,0,0,0-6.15-9.58,17.11,17.11,0,0,0-2.87-3.75,10.48,10.48,0,0,0-2.48-2.87l-.52-.56c0-.33-.17-.48-.45-.56h0a32.89,32.89,0,0,0-4.84-5l-2.73-2.61a1.2,1.2,0,0,0-1.27-.86l-.31-.24a8.44,8.44,0,0,0-2.56-2.16,14.25,14.25,0,0,0-3.21-2.39,26.87,26.87,0,0,0-5.18-3.43h0a11.52,11.52,0,0,0-3.09-1.89h0a15.29,15.29,0,0,0-3.44-1.87h0a22.09,22.09,0,0,0-3.75-1.86,25.46,25.46,0,0,0-4.29-1.85h0a3.29,3.29,0,0,0-1.53-.57h0a14.4,14.4,0,0,0-3.53-1.3l-1.61-.52a.12.12,0,0,0-.19,0,6.89,6.89,0,0,0-2.67-.8h0a15.11,15.11,0,0,0-4-1.07,13.15,13.15,0,0,0-3.58-.76h0a10.16,10.16,0,0,0-2.87-.55,1,1,0,0,0-.59-.12,13.55,13.55,0,0,0-3.59-.44h0l-.38-.2a4.51,4.51,0,0,0-2.49-.57c-.85-.06-1.75.26-2.55-.26H417.57c0,.11.07.17.12.25h-.13c0-.08,0-.17,0-.25h-2.4a.9.9,0,0,1,0,.23h0c-1.59.18-3.26-.33-4.76.58h0l-.88.22h0a7.43,7.43,0,0,0-.93,0,98.24,98.24,0,0,0-20.8,5.26,94.87,94.87,0,0,0-31.18,19.3,84.47,84.47,0,0,0-8.81,9.39,4.91,4.91,0,0,0,1.49,7.5c2.2,1.14,4.69.54,6.5-1.67a79.68,79.68,0,0,1,5.64-6.18A85,85,0,0,1,389.81,294a67.66,67.66,0,0,1,12.53-3.84,3.74,3.74,0,0,0,2.19-.27c1.58-.45,3.31-.21,4.79-1.06l.8-.21h0l.55-.08h0a10.6,10.6,0,0,0,2.67-.32,3.27,3.27,0,0,0,1.84-.15c2.23.11,4.43-.22,6.65-.29,0-.1-.07-.15-.11-.23h.11c0,.08,0,.15,0,.23a38,38,0,0,0,5.06.23h0a5.08,5.08,0,0,0,1.93.17h0l1,.16a10.47,10.47,0,0,0,4.53.53,6,6,0,0,0,1.85.25,13.18,13.18,0,0,0,3.2.54,13.45,13.45,0,0,0,3.2.82A7.59,7.59,0,0,0,445,291a7.69,7.69,0,0,0,2.4.77,16.1,16.1,0,0,0,3.45,1.11,13.54,13.54,0,0,0,3.2,1.29l3.45,1.52a4.11,4.11,0,0,0,.8.35,11.51,11.51,0,0,0,2.67,1.31,21.58,21.58,0,0,0,3.45,1.9,23,23,0,0,0,3.47,2.1,32.06,32.06,0,0,0,4,2.73,23.34,23.34,0,0,0,3.46,2.65,23.2,23.2,0,0,0,3.46,2.93l3.76,3.62,3.45,3.77,3.17,3.79,4.28,6.07,4.26,7.46A120.21,120.21,0,0,1,503,347.5h0l1.36,5.24a63.41,63.41,0,0,0,1.33,6.66c.07.61.13,1.23.21,1.84a68.11,68.11,0,0,1,.41,14.94c-.33,3.21-1,6.36-1.45,9.56l-2.39,10.54c-.94,3.32-1.95,6.61-2.78,10-.29,1.16-.85,1.31-1.86,1.31q-25.53,0-51.06,0c-1.06,0-1.35-.29-1.34-1.33q.06-12.3,0-24.6c0-.93.26-1.2,1.19-1.19,3.19,0,6.38,0,9.57,0a17.78,17.78,0,0,0,3.46,0,5.42,5.42,0,0,0,1.86,0,8.69,8.69,0,0,0,2.4,0c0-.07,0-.15,0-.22H464c0,.07-.08.14-.08.22h1.34a6.83,6.83,0,0,0,2.12,0l2.13,0,1.6,0h2.4a6.92,6.92,0,0,0,2.13,0H477a5.37,5.37,0,0,0,1.85,0,6.93,6.93,0,0,0,2.12,0h2.67c1.77,0,3.54,0,5.31.07.65,0,.92-.17.62-.85q-2.71-6.24-5.41-12.49c-.39-.42-.87-.22-1.32-.17l-1.07,0-2.68,0a6.24,6.24,0,0,0-2.08,0,5.08,5.08,0,0,0-1.86,0h0a19.25,19.25,0,0,0-3.73,0h0a66.06,66.06,0,0,0-6.91,0l-18.92-.06a5.87,5.87,0,0,1-.1-.78q0-12.32,0-24.64a8.71,8.71,0,0,1,.12-1l20.29,0a2.39,2.39,0,0,0,.51-.11h0a20.09,20.09,0,0,0,5.07,0h0a17.45,17.45,0,0,0,4.77,0h0a3.4,3.4,0,0,0,2.06,0h0a9,9,0,0,0,3.46,0h0a56.55,56.55,0,0,0,6.5.13c1.62,0,1.66-.07,1-1.53-1.49-3.5-3-7-4.41-10.52-.52-1.32-1.23-1.85-2.59-1.42h-.57a2.71,2.71,0,0,0-1.6,0,3.5,3.5,0,0,0-1.84,0,2.65,2.65,0,0,0-1.58,0h0a8.52,8.52,0,0,0-2.92,0h0a19.52,19.52,0,0,0-4.52,0h0a73.11,73.11,0,0,0-8.76,0h0c-5.48-.33-11,0-16.47-.24-3.22-.16-6.46.09-9.7.13-2.65,0-2.65,0-2.65,2.65q0,38.91,0,77.82v0c-.39.36-.91.09-1.33.29q-6.79-.22-13.58,0a18.61,18.61,0,0,0-4,0,3.25,3.25,0,0,0-1.6,0h0q-5.46-.22-10.92,0a42.73,42.73,0,0,0-6.12,0,4.28,4.28,0,0,0-1.86,0c0,.07,0,.14,0,.22h-.1c0-.07.11-.12.11-.22a14.25,14.25,0,0,0-3.46,0h0a21.18,21.18,0,0,0-4.26,0,3.23,3.23,0,0,0-1.6,0,18.73,18.73,0,0,0-4,0h0a59.3,59.3,0,0,0-6.94,0l-.5-.31h0a23,23,0,0,0,2.62-3.49l32.22-45.73c3.67-5.21,7.27-10.47,11-15.61,1-1.32,1.12-2.38.27-3.68a7.16,7.16,0,0,1-.36-.7c-1.06-2.63-2.07-5.29-3.34-7.83a4.53,4.53,0,0,0-.37-.75c-.53-2.14-.7-2.29-2.42-2.06a24,24,0,0,0-4.79,0,.93.93,0,0,0-.8,0,23.91,23.91,0,0,0-4.79,0,2.13,2.13,0,0,0-1.33,0,26.45,26.45,0,0,0-5.06,0,35.76,35.76,0,0,0-5.86,0,83.34,83.34,0,0,0-9,0h0q-5.86-.24-11.71,0a6.51,6.51,0,0,0-.78-.09l-27.83-.08c-.3,0-.62-.1-.88.16h0c-.59,0-.65.35-.6.81a33.46,33.46,0,0,0-2.67,5.85,1.93,1.93,0,0,0-.5,1.07,28.42,28.42,0,0,0-1.94,4.51h0a17.22,17.22,0,0,0-1.85,4.54A82.72,82.72,0,0,0,326,362.86a16.31,16.31,0,0,0-.58,4.2h0c-.32.52-.1,1.11-.22,1.66h-.27V383.1a.82.82,0,0,0,.23,0h0c.19.51-.12,1.11.29,1.58a96,96,0,0,0,1.49,10,93.63,93.63,0,0,0,29.55,50.78,67.32,67.32,0,0,0,10.44,7.94,11,11,0,0,0,3,1.9,6.75,6.75,0,0,0,2.1,1.3,2.06,2.06,0,0,0,1.09.57h0A14.7,14.7,0,0,0,376.3,459a25.53,25.53,0,0,0,5.24,2.43,17,17,0,0,0,4.51,1.86,23.82,23.82,0,0,0,5.33,1.86h0a20.82,20.82,0,0,0,4.57,1.32,5.55,5.55,0,0,0,2.19.53l.08.05.08,0a31.64,31.64,0,0,0,6.69,1.33,18.34,18.34,0,0,0,3.71.54,4,4,0,0,0,1,.1l3.9.42c.76.45,1.61.06,2.4.27h0v.25h8a1.42,1.42,0,0,0,0-.23h0c.77-.25,1.63.17,2.38-.29l4.15-.46a.75.75,0,0,0,.46-.05l.09,0,.08-.06A54.69,54.69,0,0,0,441.81,467a6.56,6.56,0,0,0,2.13-.51,38.72,38.72,0,0,0,6.39-1.88,31.41,31.41,0,0,0,5.06-1.86h0a19.68,19.68,0,0,0,4.26-1.84,18,18,0,0,0,4-1.89,24.21,24.21,0,0,0,4.27-2.37,20.56,20.56,0,0,0,4-2.42,5.27,5.27,0,0,0,.59-.3A94.09,94.09,0,0,0,489.17,440a53.29,53.29,0,0,0,4.78-5.52,4.47,4.47,0,0,0,.25-5,4.71,4.71,0,0,0-4.35-2.53c-2.14,0-3.41,1.21-4.63,2.67a86.75,86.75,0,0,1-6.66,7c-2.38,2.26-5,4.24-7.45,6.39a27.11,27.11,0,0,0-3.76,2.65h0l-4.79,2.93-4.87,2.63a7.31,7.31,0,0,0-2.36,1.08l-4.5,1.85h0a3.52,3.52,0,0,0-1.35.55h0a24.51,24.51,0,0,0-4,1.32h0l-4.76,1.35h0l-9.62,1.84h0l-6.09.55H414.92a.32.32,0,0,0,0,.29h0v-.29l-5.6-.53-10.11-1.87L394.42,456l-5.32-1.86a3,3,0,0,0-1.33-.52l-4.26-1.86-3.72-1.88-3.21-1.81-3.17-1.94a15.63,15.63,0,0,0-2.68-1.81A103.56,103.56,0,0,1,357.5,432.7a85,85,0,0,1-18.43-31,5.82,5.82,0,0,0-.8-2.42c-.09-.39-.16-.78-.27-1.16a79.21,79.21,0,0,1-3-18.84,81.86,81.86,0,0,1,3.75-28.15,10.05,10.05,0,0,0,1.32-3.74l1.38-3.89h0a7.32,7.32,0,0,0,1-2.27l.55-.53h0c5.51.05,11,.13,16.52-.05a.43.43,0,0,1,0-.13h0a.3.3,0,0,0,0,.14c.48,0,1,.09,1.45.09h18c1.23,0,2.47-.06,3.7-.09h0q5.05.24,10.11,0a65.34,65.34,0,0,0,7.42,0h0l.07,0h0v.58h0c-2.39,2.79-4.47,5.82-6.66,8.76Q378,371,362.41,392q-5.19,7-10.34,14c-1.25,1.38-1.25,1.38,0,2.41h0a3.42,3.42,0,0,0,1,1.36h0a2.26,2.26,0,0,0,.82,1.06,5.52,5.52,0,0,0,1.42,1.83,23.65,23.65,0,0,0,2.85,3.74,10.35,10.35,0,0,0,1.86,2.4c.58.85.9,2,2.12,2.14a12.28,12.28,0,0,0,3.44-.07h0a33.07,33.07,0,0,0,5.86,0h0c3.34.24,6.69.09,10,.1,2.51,0,5,.15,7.52-.09h0a2.12,2.12,0,0,0,1.37,0c.57,0,1.14.11,1.71.11l63.33,0q24.75,0,49.49,0c.54,0,1.3.36,1.55-.56h0c.14-.51.31-1,.43-1.52q1-4.38,2-8.76h0c.85-3,1.79-6.06,2.39-9.17l.23-.53c.76-.85.67-1.93.79-2.95.57-2.63,1.18-5.25,1.71-7.89a75.73,75.73,0,0,0,1.53-8.86C517.3,372.4,516.5,364.16,515.07,355.93Zm-97.59-77.51h0Zm-48.09,49.31v0l0,0Zm25.29,12.75h-.06l.06,0Zm114.48,67.12h0Zm-53-27.42h0l0,0v0Zm10.38,0h0Zm-21-13.27Zm-53.26,41h0l0,0Zm-32.76,0h0l0,0Zm10.92,0h.09v0Zm-6.92,0h0Zm.53,12.74,0,0h0Zm5.86,0h0Z"/>
  </g>
</svg>
